<?xml version="1.0" encoding="utf-8"?>
<svg viewBox="59.403 108.591 180.04 181.3" xmlns="http://www.w3.org/2000/svg">
  <g transform="matrix(1, 0, 0, 1, 49.40255, 72.761482)">
    <circle class="st0" cx="100.18" cy="127.05" r="83.21" style="clip-rule: evenodd; display: none; fill: rgb(255, 255, 255); fill-rule: evenodd; perspective-origin: 50% 50%;"/>
    <g>
      <g>
        <g>
          <path class="st1" d="M32.01,165.03l6.67-4.26c0.69-0.44,1.46-0.53,2.33-0.26c0.86,0.26,1.54,0.79,2.05,1.59 c0.26,0.41,0.44,0.82,0.54,1.24c0.1,0.42,0.12,0.85,0.05,1.31c-0.12,0.89-0.52,1.56-1.21,2l-6.67,4.26l0.35,0.54l-0.76,0.49 l-1.81-2.82l0.76-0.49l0.35,0.55l7.39-4.73c0.14-0.09,0.25-0.21,0.33-0.35c0.08-0.14,0.13-0.3,0.16-0.47 c0.02-0.17,0.01-0.34-0.03-0.53c-0.04-0.18-0.11-0.35-0.22-0.52c-0.1-0.16-0.23-0.3-0.38-0.41c-0.15-0.11-0.3-0.19-0.46-0.24 c-0.16-0.05-0.33-0.07-0.49-0.05c-0.17,0.01-0.32,0.07-0.46,0.16l-7.39,4.73l0.35,0.55l-0.76,0.49l-1.81-2.84l0.76-0.49 L32.01,165.03z" style="fill: rgb(0, 78, 132);"/>
          <path class="st1" d="M36.74,150.15l-7.3,6.89l7.85-3.18l-0.25-0.61l0.83-0.33l0.89,2.19l-0.82,0.33l-0.24-0.59l-9.01,3.65 l0.24,0.59l-0.82,0.33l-1.1-2.71l7.33-6.89L26.45,153l0.25,0.61l-0.82,0.33l-0.89-2.19l0.83-0.33l0.25,0.61l9.01-3.65 l-0.25-0.61l0.82-0.33L36.74,150.15z" style="fill: rgb(0, 78, 132);"/>
          <path class="st1" d="M34.59,143.47l-0.86,0.21l-0.14-0.59l-9.44,2.3l0.14,0.59l-0.86,0.21l-0.74-3.01l0.86-0.21l0.14,0.59 l9.44-2.3l-0.14-0.59l0.86-0.21L34.59,143.47z" style="fill: rgb(0, 78, 132);"/>
          <path class="st1" d="M21.65,128.63l10.86,2.41l0.13,1.53l-10.27,4.27l0.07,0.86l-0.89,0.08l-0.33-3.76l0.89-0.08l0.07,0.75 l7.6-3.16l-8.03-1.79l0.06,0.73l-0.89,0.08l-0.25-2.89l0.89-0.08L21.65,128.63z" style="fill: rgb(0, 78, 132);"/>
          <path class="st1" d="M32.3,123.01l-0.89-0.09l0.07-0.65l-9.67-0.98l-0.07,0.65l-0.89-0.09l0.77-7.55l1.44,0.15l-0.1,1.03 l-0.56-0.06l-0.39,3.84l4.39,0.45l0.22-2.2l-0.56-0.06l0.11-1.04l2,0.2l-0.11,1.04l-0.56-0.06l-0.22,2.2l4.39,0.45l0.39-3.84 l-0.55-0.06l0.1-1.03l1.44,0.15L32.3,123.01z" style="fill: rgb(0, 78, 132);"/>
          <path class="st1" d="M36.45,102.31c-0.13,0.46-0.33,0.87-0.58,1.21c-0.25,0.35-0.57,0.65-0.95,0.9 c-0.77,0.51-1.53,0.65-2.3,0.42l-1.07-0.31c-0.16-0.05-0.32-0.05-0.49-0.02c-0.17,0.03-0.32,0.1-0.46,0.19 c-0.14,0.09-0.27,0.22-0.39,0.36c-0.11,0.15-0.2,0.32-0.25,0.51l-0.4,1.39l4.24,1.24l0.18-0.63l0.85,0.25l-0.94,3.23l-0.85-0.25 l0.18-0.62l-9.33-2.72l-0.18,0.62l-0.85-0.25l1.12-3.83c0.27-0.91,0.77-1.61,1.53-2.12c0.39-0.25,0.77-0.41,1.15-0.48 c0.38-0.07,0.76-0.05,1.15,0.06l0.27,0.08c0.26,0.08,0.49,0.19,0.7,0.34c0.21,0.15,0.4,0.33,0.56,0.54 c0.16,0.21,0.29,0.45,0.39,0.71c0.1,0.26,0.17,0.54,0.2,0.84c0.19-0.25,0.4-0.46,0.64-0.64c0.24-0.18,0.49-0.33,0.75-0.43 c0.26-0.1,0.53-0.16,0.8-0.18s0.55,0.01,0.81,0.09l1.07,0.31c0.16,0.05,0.33,0.05,0.49,0.01c0.17-0.04,0.32-0.12,0.47-0.23 s0.28-0.26,0.4-0.43c0.12-0.17,0.21-0.37,0.27-0.59l0.7,0.2L36.45,102.31z M26.44,103.19c-0.16-0.05-0.33-0.06-0.5-0.02 c-0.17,0.03-0.32,0.1-0.47,0.19c-0.15,0.1-0.27,0.22-0.39,0.37c-0.11,0.15-0.2,0.32-0.25,0.51l-0.36,1.23l4.24,1.24l0.36-1.23 c0.06-0.19,0.08-0.38,0.07-0.57c-0.01-0.19-0.05-0.36-0.12-0.52s-0.17-0.3-0.29-0.41c-0.12-0.12-0.26-0.2-0.43-0.25 L26.44,103.19z" style="fill: rgb(0, 78, 132);"/>
          <path class="st1" d="M32.9,89.65c-0.59-0.28-1.18-0.31-1.76-0.08c-0.57,0.24-1.01,0.65-1.3,1.22c-0.12,0.23-0.2,0.47-0.25,0.71 c-0.05,0.24-0.06,0.49-0.04,0.74c0.07,0.52,0.29,0.88,0.66,1.07c0.14,0.07,0.29,0.11,0.45,0.11c0.16,0,0.32-0.02,0.48-0.08 l5.36-2.04c0.38-0.14,0.76-0.2,1.13-0.18c0.37,0.01,0.73,0.11,1.08,0.29c0.36,0.18,0.65,0.42,0.89,0.72 c0.23,0.3,0.41,0.68,0.52,1.12c0.23,0.87,0.13,1.72-0.29,2.56c-0.22,0.44-0.49,0.81-0.79,1.1c-0.3,0.29-0.65,0.52-1.03,0.68 l0.49,0.24l-0.46,0.92l-2.54-1.27l0.46-0.92c0.3,0.14,0.6,0.22,0.89,0.23c0.29,0.01,0.59-0.04,0.89-0.16l-0.01,0.01 c0.28-0.11,0.53-0.27,0.74-0.48c0.21-0.21,0.4-0.47,0.55-0.76c0.12-0.23,0.2-0.46,0.25-0.71c0.05-0.24,0.06-0.5,0.03-0.77 c-0.07-0.51-0.28-0.86-0.65-1.04c-0.14-0.07-0.29-0.11-0.44-0.12c-0.16-0.01-0.32,0.02-0.48,0.09l-5.35,2.01 c-0.78,0.29-1.52,0.27-2.21-0.08c-0.73-0.36-1.2-0.98-1.43-1.84c-0.11-0.44-0.14-0.88-0.09-1.29c0.05-0.42,0.18-0.84,0.4-1.27 c0.21-0.42,0.47-0.78,0.77-1.08c0.3-0.3,0.65-0.53,1.05-0.68l-0.5-0.25l0.47-0.94l2.54,1.28L32.9,89.65z" style="fill: rgb(0, 78, 132);"/>
          <path class="st1" d="M43.58,88.78l-0.73-0.51l0.35-0.5l-7.98-5.55l-0.35,0.5l-0.73-0.51l1.77-2.55l0.73,0.51l-0.35,0.5 l7.98,5.55l0.35-0.5l0.73,0.51L43.58,88.78z" style="fill: rgb(0, 78, 132);"/>
          <path class="st1" d="M44.43,71.8l-0.41-0.38l-0.95,1.04l7.16,6.56l0.44-0.48l0.66,0.6l-2.24,2.45l-0.66-0.6l0.44-0.48 l-7.16-6.56l-0.94,1.03l0.41,0.38l-0.71,0.77l-1.07-0.98l4.66-5.08l1.07,0.98L44.43,71.8z" style="fill: rgb(0, 78, 132);"/>
          <path class="st1" d="M59.78,71.76l-0.54-0.7l0.6-0.47l-1.64-1.13l-2.97,2.3l0.68,1.88l0.58-0.45l0.54,0.7l-2.3,1.77l-0.54-0.7 l0.83-0.64l-3.83-10.44l1.2-0.93l9.14,6.34l0.7-0.54l0.54,0.7L59.78,71.76z M54.88,70.89l2.54-1.97l-4.37-3.02L54.88,70.89z" style="fill: rgb(0, 78, 132);"/>
          <path class="st1" d="M67.58,57.07c-0.31-0.58-0.77-0.95-1.37-1.11c-0.6-0.15-1.19-0.08-1.77,0.22 c-0.23,0.12-0.44,0.26-0.63,0.42c-0.18,0.16-0.34,0.35-0.47,0.58c-0.26,0.46-0.29,0.88-0.1,1.25c0.07,0.14,0.17,0.26,0.3,0.35 c0.13,0.1,0.27,0.17,0.44,0.22l5.52,1.54c0.39,0.12,0.73,0.29,1.02,0.52c0.29,0.23,0.52,0.52,0.7,0.87 c0.18,0.36,0.28,0.73,0.29,1.11c0.01,0.38-0.07,0.79-0.25,1.21c-0.33,0.83-0.91,1.46-1.75,1.89c-0.44,0.22-0.87,0.37-1.29,0.42 c-0.42,0.06-0.83,0.03-1.24-0.06l0.25,0.49l-0.92,0.47l-1.29-2.53l0.92-0.47c0.16,0.29,0.35,0.53,0.58,0.71 c0.23,0.19,0.5,0.32,0.81,0.4l-0.01,0.01c0.29,0.08,0.59,0.1,0.89,0.05c0.3-0.04,0.6-0.14,0.89-0.29 c0.23-0.12,0.44-0.26,0.62-0.42c0.19-0.16,0.35-0.36,0.48-0.6c0.25-0.45,0.28-0.86,0.1-1.23c-0.07-0.14-0.17-0.26-0.29-0.36 c-0.12-0.1-0.27-0.17-0.44-0.22l-5.5-1.55c-0.8-0.23-1.38-0.68-1.73-1.37c-0.37-0.72-0.39-1.5-0.06-2.33 c0.17-0.42,0.41-0.79,0.69-1.1c0.29-0.31,0.64-0.57,1.07-0.79c0.42-0.21,0.84-0.35,1.27-0.41s0.84-0.04,1.25,0.07l-0.25-0.5 l0.94-0.48l1.29,2.54L67.58,57.07z" style="fill: rgb(0, 78, 132);"/>
          <path class="st1" d="M92.72,58.98l-0.08-0.54c-0.27,0.31-0.6,0.57-0.98,0.76c-0.38,0.2-0.81,0.33-1.27,0.39 c-0.48,0.07-0.92,0.06-1.34-0.02c-0.42-0.08-0.82-0.25-1.2-0.49c-0.74-0.48-1.17-1.13-1.29-1.94l-0.87-6.06 c-0.06-0.41-0.03-0.79,0.09-1.15c0.12-0.36,0.32-0.71,0.61-1.05c0.59-0.68,1.36-1.09,2.29-1.22c0.47-0.07,0.91-0.06,1.33,0.02 c0.42,0.08,0.81,0.23,1.16,0.47l-0.08-0.56l1.04-0.15l0.4,2.82l-1.04,0.15c-0.05-0.33-0.15-0.63-0.3-0.88 c-0.16-0.26-0.36-0.47-0.61-0.63c-0.26-0.16-0.53-0.27-0.83-0.33c-0.3-0.06-0.61-0.06-0.94-0.01c-0.2,0.03-0.37,0.09-0.54,0.17 c-0.16,0.09-0.3,0.2-0.41,0.33c-0.11,0.13-0.19,0.27-0.25,0.43c-0.05,0.16-0.07,0.32-0.04,0.48l1.11,7.75 c0.02,0.16,0.08,0.31,0.18,0.45c0.09,0.13,0.21,0.25,0.36,0.34c0.14,0.09,0.3,0.16,0.48,0.19c0.18,0.04,0.37,0.04,0.57,0.02 c0.33-0.05,0.63-0.14,0.9-0.27c0.27-0.14,0.51-0.32,0.71-0.56c0.19-0.23,0.33-0.48,0.41-0.77s0.09-0.6,0.04-0.93l1.04-0.15 l0.4,2.81L92.72,58.98z" style="fill: rgb(0, 78, 132);"/>
          <path class="st1" d="M98.28,58.6l0.02-0.89l0.66,0.02l0.25-9.71l-0.66-0.02l0.02-0.89l3.32,0.09l-0.02,0.89l-0.64-0.02 l-0.25,9.71l3.18,0.08l0.01-0.55l1.03,0.03l-0.04,1.44L98.28,58.6z" style="fill: rgb(0, 78, 132);"/>
          <path class="st1" d="M115.1,60.39l0.18-0.87l0.75,0.16l-0.21-1.98l-3.68-0.77l-0.98,1.74l0.72,0.15l-0.18,0.87l-2.84-0.59 l0.18-0.87l1.03,0.21l5.45-9.7l1.49,0.31l1.11,11.07l0.86,0.18l-0.18,0.87L115.1,60.39z M112.58,56.11l3.15,0.66l-0.54-5.28 L112.58,56.11z" style="fill: rgb(0, 78, 132);"/>
          <path class="st1" d="M133.38,55.55l-3.06,7.29c-0.32,0.75-0.91,1.27-1.77,1.54c-0.85,0.27-1.72,0.23-2.59-0.14 c-0.45-0.19-0.83-0.43-1.15-0.71c-0.32-0.29-0.58-0.64-0.78-1.05c-0.41-0.8-0.46-1.58-0.14-2.34l3.06-7.3l-0.59-0.25l0.35-0.84 l3.09,1.3l-0.35,0.84l-0.61-0.25l-3.4,8.09c-0.06,0.15-0.09,0.31-0.07,0.48c0.01,0.17,0.06,0.32,0.14,0.48 c0.08,0.15,0.19,0.29,0.32,0.42c0.14,0.13,0.29,0.23,0.48,0.3c0.18,0.07,0.36,0.12,0.54,0.12c0.18,0.01,0.36-0.01,0.52-0.06 c0.16-0.05,0.3-0.13,0.43-0.24c0.13-0.11,0.23-0.23,0.29-0.39l3.4-8.09l-0.61-0.25l0.35-0.84l3.11,1.3l-0.35,0.84L133.38,55.55z " style="fill: rgb(0, 78, 132);"/>
          <path class="st1" d="M141.42,69.22c-0.22,0.34-0.5,0.61-0.83,0.81s-0.72,0.33-1.18,0.39c-0.88,0.1-1.72-0.11-2.52-0.64 l-3.43-2.25l0.49-0.74l0.55,0.36l5.32-8.13l-0.55-0.36l0.49-0.74l3.43,2.25c0.79,0.52,1.32,1.21,1.58,2.08 c0.13,0.44,0.17,0.85,0.11,1.23c-0.05,0.38-0.19,0.74-0.4,1.07L141.42,69.22z M143.24,62.76c0.09-0.14,0.15-0.3,0.17-0.47 c0.02-0.17,0-0.34-0.04-0.5c-0.05-0.17-0.13-0.33-0.24-0.48c-0.11-0.15-0.25-0.29-0.42-0.39l-1.18-0.77l-5.32,8.13l1.18,0.77 c0.17,0.11,0.34,0.18,0.53,0.23c0.18,0.04,0.36,0.06,0.53,0.03c0.17-0.02,0.33-0.07,0.47-0.15c0.15-0.08,0.26-0.19,0.36-0.34 L143.24,62.76z" style="fill: rgb(0, 78, 132);"/>
          <path class="st1" d="M143.33,74.59l0.59-0.67l0.46,0.4l6.43-7.28l-0.46-0.4l0.59-0.67l2.33,2.05l-0.59,0.67l-0.46-0.4 l-6.43,7.28l0.46,0.4l-0.59,0.67L143.33,74.59z" style="fill: rgb(0, 78, 132);"/>
          <path class="st1" d="M155.46,83.3c-0.62,0.53-1.38,0.73-2.27,0.58c-0.87-0.12-1.62-0.55-2.23-1.26 c-0.31-0.37-0.55-0.75-0.7-1.14c-0.15-0.4-0.23-0.82-0.23-1.28c0.01-0.89,0.32-1.6,0.94-2.13l4.65-3.98 c0.31-0.27,0.65-0.45,1.02-0.54c0.37-0.09,0.77-0.11,1.22-0.05c0.89,0.14,1.65,0.57,2.26,1.28c0.61,0.71,0.91,1.52,0.9,2.41 c0,0.46-0.08,0.86-0.22,1.21c-0.15,0.35-0.38,0.66-0.69,0.93L155.46,83.3z M159.45,77.23c0.13-0.11,0.22-0.24,0.28-0.39 c0.06-0.15,0.09-0.32,0.09-0.49c0-0.17-0.03-0.34-0.09-0.52c-0.06-0.17-0.16-0.33-0.28-0.48c-0.13-0.15-0.27-0.27-0.44-0.36 c-0.16-0.09-0.33-0.15-0.5-0.17c-0.17-0.02-0.33-0.02-0.49,0.02c-0.16,0.04-0.3,0.11-0.43,0.22l-5.95,5.1 c-0.13,0.11-0.22,0.24-0.28,0.39c-0.06,0.15-0.09,0.31-0.09,0.48c0,0.17,0.03,0.34,0.1,0.51c0.06,0.17,0.16,0.34,0.29,0.49 c0.12,0.15,0.27,0.26,0.43,0.35c0.16,0.09,0.33,0.15,0.49,0.17c0.17,0.03,0.33,0.02,0.49-0.02c0.16-0.04,0.31-0.11,0.43-0.22 L159.45,77.23z" style="fill: rgb(0, 78, 132);"/>
          <path class="st1" d="M167.01,91.06c-0.35,0.21-0.72,0.33-1.1,0.36c-0.38,0.03-0.78-0.03-1.22-0.18 c-0.43-0.15-0.81-0.36-1.14-0.64c-0.33-0.28-0.61-0.63-0.86-1.04l-0.72-1.22l-3.8,2.24l0.33,0.55l-0.77,0.45l-1.69-2.87 l0.77-0.45l0.33,0.57l8.37-4.94l-0.33-0.57l0.77-0.45l2.09,3.54c0.48,0.81,0.65,1.67,0.5,2.56c-0.08,0.45-0.23,0.84-0.44,1.15 c-0.21,0.32-0.49,0.58-0.84,0.78L167.01,91.06z M166.93,88.76c0.15-0.09,0.27-0.2,0.36-0.35c0.09-0.14,0.15-0.3,0.18-0.47 c0.03-0.17,0.03-0.35-0.01-0.54c-0.03-0.19-0.1-0.37-0.2-0.54l-0.72-1.22l-3.8,2.24l0.72,1.22c0.1,0.17,0.22,0.32,0.37,0.44 c0.15,0.12,0.3,0.21,0.46,0.27c0.16,0.06,0.33,0.08,0.5,0.07c0.17-0.01,0.33-0.06,0.47-0.14L166.93,88.76z" style="fill: rgb(0, 78, 132);"/>
          <path class="st1" d="M166.72,104.88c-0.77,0.29-1.54,0.21-2.33-0.23c-0.78-0.42-1.33-1.07-1.66-1.95 c-0.17-0.45-0.26-0.89-0.26-1.31c-0.01-0.43,0.07-0.85,0.23-1.28c0.31-0.83,0.85-1.39,1.62-1.67l5.74-2.15 c0.39-0.14,0.77-0.2,1.14-0.16c0.38,0.04,0.76,0.16,1.16,0.37c0.79,0.43,1.35,1.1,1.68,1.98c0.33,0.88,0.34,1.74,0.02,2.57 c-0.16,0.43-0.37,0.78-0.63,1.06c-0.26,0.28-0.58,0.49-0.96,0.64L166.72,104.88z M172.55,100.54c0.15-0.06,0.29-0.15,0.4-0.27 c0.11-0.12,0.2-0.27,0.26-0.43c0.06-0.16,0.09-0.33,0.09-0.52c0-0.18-0.03-0.37-0.1-0.55c-0.07-0.19-0.16-0.35-0.29-0.49 c-0.12-0.14-0.26-0.25-0.41-0.33c-0.15-0.08-0.31-0.13-0.47-0.15c-0.16-0.02-0.32,0-0.48,0.06l-7.34,2.74 c-0.15,0.06-0.29,0.15-0.4,0.27c-0.11,0.12-0.2,0.26-0.25,0.42c-0.06,0.16-0.09,0.33-0.09,0.52c0,0.19,0.04,0.37,0.1,0.56 c0.07,0.18,0.16,0.34,0.28,0.48c0.12,0.14,0.26,0.25,0.4,0.33c0.15,0.08,0.3,0.13,0.47,0.15c0.17,0.02,0.32,0,0.48-0.06 L172.55,100.54z" style="fill: rgb(0, 78, 132);"/>
          <path class="st1" d="M165.38,110.17l0.87-0.17l0.12,0.65l9.54-1.83l-0.12-0.65l0.87-0.17l0.62,3.26l-0.87,0.17l-0.12-0.63 l-9.54,1.83l0.6,3.13l0.54-0.1l0.19,1.02l-1.42,0.27L165.38,110.17z" style="fill: rgb(0, 78, 132);"/>
          <path class="st1" d="M167.03,121.09l0.89-0.05l0.03,0.61l9.7-0.52l-0.03-0.61l0.89-0.05l0.17,3.1l-0.89,0.05l-0.03-0.61 l-9.7,0.52l0.03,0.61l-0.89,0.05L167.03,121.09z" style="fill: rgb(0, 78, 132);"/>
          <path class="st1" d="M176.78,135.04l0.56,0.05l0.11-1.41l-9.68-0.79l-0.05,0.66l-0.89-0.07l0.27-3.31l0.89,0.07l-0.05,0.65 l9.68,0.79l0.11-1.39l-0.56-0.05l0.09-1.05l1.45,0.12l-0.56,6.87l-1.45-0.12L176.78,135.04z" style="fill: rgb(0, 78, 132);"/>
          <path class="st1" d="M164.69,144.46l0.86,0.22l-0.19,0.74l1.99-0.12l0.94-3.64l-1.69-1.06l-0.18,0.71l-0.86-0.22l0.73-2.81 l0.86,0.22l-0.26,1.02l9.43,5.9l-0.38,1.47l-11.11,0.59l-0.22,0.85l-0.86-0.22L164.69,144.46z M169.09,142.14l-0.8,3.11l5.3-0.3 L169.09,142.14z" style="fill: rgb(0, 78, 132);"/>
          <path class="st1" d="M160.07,156.35l10.02,0.73l-7.64-3.64l-0.28,0.59l-0.8-0.38l1.02-2.14l0.8,0.38l-0.28,0.58l8.77,4.18 l0.28-0.58l0.8,0.38l-1.26,2.64l-10.03-0.75l7.66,3.65l0.28-0.59l0.8,0.38l-1.02,2.14l-0.8-0.38l0.28-0.59l-8.77-4.18 l-0.28,0.59l-0.8-0.38L160.07,156.35z" style="fill: rgb(0, 78, 132);"/>
          <path class="st1" d="M153.18,167.3l0.72,0.53l-0.45,0.61l1.89,0.64l2.23-3.03l-1.17-1.62l-0.44,0.59l-0.72-0.53l1.72-2.33 l0.72,0.53l-0.62,0.84l6.54,8.99l-0.91,1.23l-10.52-3.6l-0.52,0.71l-0.72-0.53L153.18,167.3z M158.13,166.79l-1.91,2.59 l5.03,1.71L158.13,166.79z" style="fill: rgb(0, 78, 132);"/>
        </g>
        <g>
          <path class="st1" d="M53.61,187.35c-0.49,0.58-1.14,0.88-1.98,0.89c-0.83,0.01-1.6-0.27-2.29-0.84l-2.94-2.45l0.53-0.64 l0.47,0.39l5.81-6.96l-0.47-0.39l0.53-0.64l2.85,2.38c0.66,0.55,1.07,1.24,1.22,2.08c0.14,0.84-0.03,1.54-0.5,2.11l-0.17,0.2 c-0.16,0.2-0.35,0.36-0.55,0.48c-0.21,0.13-0.43,0.22-0.67,0.28c-0.24,0.06-0.49,0.08-0.75,0.07c-0.26-0.01-0.53-0.06-0.79-0.15 c0.15,0.26,0.26,0.52,0.33,0.79c0.07,0.27,0.1,0.53,0.09,0.79c-0.01,0.26-0.06,0.51-0.15,0.75c-0.09,0.24-0.22,0.46-0.39,0.67 L53.61,187.35z M52.83,185.34c0.1-0.12,0.17-0.25,0.2-0.41c0.03-0.15,0.04-0.31,0.01-0.47c-0.03-0.16-0.08-0.31-0.17-0.47 c-0.09-0.16-0.2-0.29-0.35-0.41l-1.01-0.84l-2.64,3.17l1.01,0.84c0.14,0.12,0.3,0.21,0.46,0.27c0.17,0.06,0.33,0.09,0.49,0.09 c0.16,0,0.31-0.03,0.46-0.09c0.14-0.06,0.27-0.15,0.37-0.27L52.83,185.34z M55.86,181.45c0.1-0.12,0.17-0.26,0.21-0.41 c0.04-0.15,0.04-0.31,0.02-0.47c-0.02-0.16-0.08-0.31-0.16-0.46c-0.08-0.15-0.19-0.28-0.33-0.4l-0.92-0.77l-2.64,3.17l0.92,0.77 c0.14,0.11,0.29,0.2,0.45,0.26c0.16,0.06,0.32,0.08,0.48,0.08c0.16,0,0.31-0.04,0.45-0.1c0.14-0.06,0.27-0.16,0.37-0.28 L55.86,181.45z" style="fill: rgb(0, 78, 132);"/>
          <path class="st1" d="M58.67,194.06l0.45-0.7l0.6,0.38l0.47-1.8l-2.96-1.88l-1.43,1.19l0.58,0.37l-0.45,0.7l-2.28-1.45l0.45-0.7 l0.83,0.53l7.95-6.67l1.2,0.76l-2.67,10.03l0.69,0.44l-0.45,0.7L58.67,194.06z M57.88,189.49l2.53,1.61l1.26-4.79L57.88,189.49z " style="fill: rgb(0, 78, 132);"/>
          <path class="st1" d="M71.34,197.43c-0.32,0.69-0.87,1.15-1.67,1.37c-0.8,0.23-1.61,0.16-2.43-0.21l-3.48-1.6l0.35-0.75 l0.56,0.26l3.78-8.24L67.87,188l0.35-0.75l3.37,1.55c0.79,0.36,1.36,0.92,1.72,1.69c0.35,0.77,0.38,1.49,0.07,2.17l-0.11,0.24 c-0.11,0.23-0.24,0.44-0.41,0.61c-0.17,0.18-0.36,0.32-0.57,0.44c-0.22,0.12-0.45,0.21-0.71,0.26c-0.26,0.06-0.53,0.08-0.8,0.07 c0.21,0.21,0.39,0.44,0.52,0.68c0.14,0.24,0.24,0.49,0.29,0.74c0.06,0.25,0.07,0.51,0.05,0.76c-0.02,0.26-0.09,0.51-0.2,0.75 L71.34,197.43z M70.06,195.7c0.06-0.14,0.09-0.29,0.09-0.45c-0.01-0.16-0.05-0.31-0.11-0.45c-0.07-0.15-0.16-0.28-0.29-0.41 c-0.13-0.13-0.27-0.23-0.44-0.3l-1.2-0.55l-1.72,3.75l1.2,0.55c0.17,0.08,0.34,0.12,0.52,0.14c0.18,0.01,0.34,0,0.5-0.04 c0.15-0.04,0.29-0.11,0.42-0.21c0.12-0.09,0.22-0.21,0.28-0.36L70.06,195.7z M71.96,191.15c0.07-0.15,0.1-0.3,0.09-0.46 c0-0.16-0.04-0.31-0.1-0.45c-0.07-0.15-0.16-0.28-0.28-0.4c-0.12-0.12-0.26-0.22-0.42-0.3l-1.09-0.5l-1.72,3.75l1.09,0.5 c0.16,0.07,0.33,0.12,0.5,0.13c0.17,0.01,0.33,0,0.48-0.05c0.15-0.04,0.29-0.12,0.41-0.21c0.12-0.1,0.21-0.22,0.28-0.36 L71.96,191.15z" style="fill: rgb(0, 78, 132);"/>
          <path class="st1" d="M73.07,201.05l0.25-0.79l0.59,0.18l2.68-8.66L76,191.59l0.25-0.79l6.76,2.09l-0.4,1.29l-0.92-0.29l0.15-0.5 l-3.44-1.06l-1.22,3.93l1.97,0.61l0.15-0.5l0.94,0.29l-0.56,1.79l-0.94-0.29l0.15-0.5l-1.97-0.61L75.72,201l3.44,1.06l0.15-0.49 l0.92,0.29l-0.4,1.29L73.07,201.05z" style="fill: rgb(0, 78, 132);"/>
          <path class="st1" d="M89.96,196.89c0.09-0.61-0.04-1.14-0.4-1.6c-0.37-0.45-0.85-0.73-1.44-0.83c-0.24-0.04-0.48-0.05-0.7-0.04 c-0.23,0.02-0.45,0.07-0.67,0.17c-0.45,0.2-0.71,0.49-0.78,0.87c-0.03,0.14-0.02,0.29,0.02,0.43c0.04,0.14,0.11,0.28,0.2,0.41 l3.26,4.24c0.23,0.31,0.38,0.63,0.47,0.96c0.09,0.33,0.1,0.68,0.03,1.04c-0.06,0.37-0.2,0.7-0.41,0.99 c-0.21,0.29-0.49,0.55-0.86,0.76c-0.71,0.44-1.5,0.58-2.36,0.43c-0.46-0.08-0.86-0.22-1.2-0.41c-0.34-0.19-0.64-0.44-0.89-0.74 l-0.09,0.5l-0.95-0.17l0.46-2.61l0.95,0.17c-0.04,0.31-0.03,0.59,0.03,0.86c0.07,0.26,0.19,0.51,0.39,0.75l-0.02,0 c0.17,0.22,0.38,0.4,0.63,0.54c0.25,0.13,0.52,0.23,0.83,0.28c0.24,0.04,0.47,0.05,0.7,0.03c0.23-0.02,0.46-0.08,0.69-0.18 c0.44-0.2,0.69-0.48,0.76-0.86c0.02-0.14,0.02-0.28-0.02-0.43c-0.04-0.14-0.11-0.28-0.21-0.41l-3.24-4.24 c-0.47-0.62-0.65-1.28-0.52-1.99c0.13-0.75,0.55-1.34,1.26-1.77c0.37-0.22,0.74-0.36,1.13-0.43c0.39-0.07,0.8-0.06,1.24,0.01 c0.43,0.08,0.82,0.21,1.18,0.4c0.35,0.19,0.65,0.44,0.89,0.75l0.09-0.52l0.96,0.17l-0.46,2.62L89.96,196.89z" style="fill: rgb(0, 78, 132);"/>
          <path class="st1" d="M92.98,202.76l0.05-0.8l4.82,0.29l-0.05,0.8L92.98,202.76z" style="fill: rgb(0, 78, 132);"/>
          <path class="st1" d="M107.52,202.57c0.04,0.76-0.24,1.42-0.84,1.99c-0.6,0.58-1.35,0.89-2.25,0.94l-3.82,0.21l-0.04-0.83 l0.61-0.03l-0.49-9.05l-0.61,0.03l-0.05-0.83l3.71-0.2c0.86-0.05,1.63,0.18,2.31,0.69c0.67,0.52,1.03,1.15,1.07,1.89l0.01,0.26 c0.01,0.25-0.01,0.5-0.08,0.73c-0.06,0.23-0.17,0.45-0.3,0.66c-0.14,0.21-0.31,0.39-0.51,0.56c-0.2,0.17-0.43,0.32-0.68,0.43 c0.28,0.09,0.54,0.21,0.78,0.36c0.24,0.15,0.44,0.32,0.6,0.52c0.17,0.2,0.3,0.42,0.4,0.65c0.1,0.24,0.15,0.49,0.17,0.76 L107.52,202.57z M105.15,196.72c-0.01-0.16-0.05-0.31-0.13-0.45c-0.08-0.14-0.18-0.26-0.3-0.35c-0.13-0.1-0.27-0.17-0.43-0.23 c-0.16-0.05-0.33-0.08-0.51-0.07l-1.2,0.06l0.22,4.12l1.19-0.06c0.18-0.01,0.35-0.05,0.5-0.12c0.16-0.07,0.29-0.16,0.41-0.27 c0.11-0.11,0.2-0.24,0.26-0.38c0.06-0.14,0.09-0.29,0.08-0.45L105.15,196.72z M105.58,201.63c-0.01-0.15-0.05-0.3-0.13-0.43 c-0.08-0.14-0.18-0.25-0.31-0.35c-0.13-0.1-0.28-0.17-0.45-0.23c-0.17-0.05-0.35-0.07-0.53-0.07l-1.31,0.07l0.22,4.12l1.31-0.07 c0.18-0.01,0.36-0.05,0.52-0.12c0.16-0.07,0.3-0.16,0.42-0.27c0.12-0.11,0.21-0.24,0.27-0.38c0.06-0.14,0.09-0.29,0.08-0.45 L105.58,201.63z" style="fill: rgb(0, 78, 132);"/>
          <path class="st1" d="M116.96,201.28c0.14,0.75-0.06,1.45-0.6,2.1c-0.51,0.65-1.2,1.05-2.07,1.2c-0.44,0.08-0.86,0.09-1.25,0.02 c-0.39-0.06-0.77-0.2-1.14-0.42c-0.71-0.42-1.13-1.01-1.27-1.76l-1.02-5.62c-0.07-0.38-0.06-0.74,0.04-1.08 c0.1-0.34,0.27-0.67,0.53-1c0.53-0.65,1.23-1.06,2.1-1.22c0.86-0.16,1.65-0.02,2.36,0.41c0.37,0.22,0.66,0.47,0.87,0.75 c0.21,0.28,0.35,0.61,0.42,0.99L116.96,201.28z M113.94,195.21c-0.03-0.15-0.09-0.29-0.19-0.41c-0.1-0.12-0.21-0.22-0.35-0.31 c-0.14-0.08-0.29-0.14-0.46-0.17c-0.17-0.03-0.34-0.03-0.52,0c-0.18,0.03-0.35,0.09-0.5,0.18c-0.15,0.09-0.27,0.19-0.37,0.32 c-0.1,0.12-0.17,0.26-0.21,0.41c-0.04,0.15-0.05,0.3-0.02,0.45l1.3,7.19c0.03,0.15,0.09,0.29,0.18,0.41 c0.09,0.12,0.21,0.22,0.34,0.3c0.14,0.08,0.29,0.13,0.46,0.16s0.35,0.03,0.53,0c0.18-0.03,0.34-0.09,0.49-0.18 c0.15-0.09,0.27-0.19,0.37-0.31c0.1-0.12,0.17-0.26,0.22-0.4c0.05-0.15,0.06-0.3,0.03-0.45L113.94,195.21z" style="fill: rgb(0, 78, 132);"/>
          <path class="st1" d="M120.31,203.02l-0.24-0.79l0.59-0.18l-2.66-8.67l-0.59,0.18l-0.24-0.79l2.96-0.91l0.24,0.79l-0.57,0.18 l2.66,8.67l2.84-0.87l-0.15-0.49l0.92-0.28l0.39,1.29L120.31,203.02z" style="fill: rgb(0, 78, 132);"/>
          <path class="st1" d="M131.04,188.47l-0.23,5.02l1.84,4.18l0.55-0.24l0.34,0.76l-2.85,1.25l-0.34-0.76l0.56-0.25l-1.76-3.99 l-3.96-3.4l-0.6,0.27l-0.33-0.76l3-1.32l0.34,0.76l-0.51,0.22l2.82,2.45l0.11-3.74l-0.47,0.21l-0.34-0.76l2.12-0.93l0.34,0.76 L131.04,188.47z" style="fill: rgb(0, 78, 132);"/>
          <path class="st1" d="M142.49,193.26l-0.43-0.71l0.61-0.37l-1.41-1.22l-2.99,1.83l0.44,1.81l0.59-0.36l0.43,0.71l-2.31,1.41 l-0.43-0.71l0.84-0.51l-2.5-10.07l1.21-0.74l7.83,6.81l0.7-0.43l0.43,0.71L142.49,193.26z M138.03,191.96l2.56-1.56l-3.75-3.24 L138.03,191.96z" style="fill: rgb(0, 78, 132);"/>
          <path class="st1" d="M147.12,190.07l-0.5-0.66l0.45-0.35l-5.52-7.19l-0.45,0.35l-0.51-0.66l2.3-1.76l0.51,0.66l-0.45,0.35 l5.52,7.19l0.45-0.35l0.51,0.66L147.12,190.07z" style="fill: rgb(0, 78, 132);"/>
        </g>
        <path class="st2" d="M100.01,209.38c-45.38,0-82.28-37.04-82.28-82.96c0-45.76,36.89-82.94,82.28-82.94 c45.4,0,82.3,37.19,82.3,82.94C182.31,172.33,145.41,209.38,100.01,209.38L100.01,209.38z M100.48,35.83h-0.92 c0,1.37-1.06,2.74-2.57,2.74c-1.37,0.15-2.59-1.06-2.75-2.59l0,0c-0.3,0-0.45,0-0.75,0v0.14c0,1.39-1.05,2.76-2.43,2.76 c-1.37,0.32-2.73-0.75-2.89-2.29l0,0c-0.29,0-0.59,0-0.91,0c0.14,0.15,0.14,0.15,0.14,0.15c0.18,1.54-0.9,2.91-2.27,3.07 c-1.36,0.13-2.72-0.77-3.02-2.3l0,0c-0.31,0.14-0.61,0.14-0.76,0.14v0.16c0.31,1.38-0.61,2.9-1.97,3.21 c-1.38,0.31-2.89-0.48-3.18-1.99l0,0c-0.33,0-0.62,0.15-0.94,0.15c0,0,0,0,0,0.16c0.48,1.37-0.28,2.76-1.66,3.21 c-1.35,0.46-2.88-0.15-3.33-1.69l0,0c-0.29,0-0.46,0.16-0.75,0.32l0,0c0.46,1.37-0.15,2.9-1.52,3.52 c-1.37,0.45-2.88-0.31-3.48-1.52v-0.16c-0.18,0.16-0.46,0.3-0.77,0.46l0,0c0.59,1.38,0.13,2.91-1.22,3.52 c-1.2,0.61-2.87,0.15-3.48-1.23l0,0c-0.29,0-0.6,0.15-0.76,0.32l0,0c0.61,1.35,0.16,2.89-1.07,3.65 c-1.2,0.77-2.72,0.31-3.47-0.91c-0.15,0-0.15,0-0.15-0.15c-0.16,0.15-0.47,0.3-0.63,0.46v0.16c0.77,1.21,0.46,2.9-0.74,3.66 c-1.37,0.62-2.89,0.47-3.81-0.76c0,0,0,0,0-0.15c-0.13,0.31-0.44,0.46-0.59,0.61l0,0c0.91,1.23,0.59,2.91-0.46,3.68 c-1.21,0.91-2.88,0.76-3.79-0.47l0,0c-0.16,0.15-0.46,0.31-0.61,0.47l0,0c0.9,1.21,0.76,2.9-0.31,3.82 c-1.06,0.91-2.73,0.91-3.65-0.16l-0.16-0.15c-0.14,0.31-0.29,0.46-0.59,0.6c0.15,0,0.15,0,0.15,0c0.9,1.07,0.9,2.76-0.15,3.83 c-0.91,1.07-2.58,1.07-3.65,0l0,0c-0.3,0.16-0.46,0.31-0.6,0.61l0,0c1.05,1.08,1.21,2.76,0.3,3.84c-0.93,1.06-2.72,1.06-3.8,0.14 l0,0c-0.16,0.31-0.31,0.47-0.62,0.61c0.17,0,0.17,0,0.17,0c1.06,1.09,1.35,2.76,0.45,3.83c-0.76,1.23-2.43,1.37-3.65,0.6 c-0.13-0.15-0.13-0.15-0.13-0.15c-0.16,0.32-0.31,0.47-0.46,0.77l0,0c1.36,0.91,1.51,2.45,0.76,3.67 c-0.76,1.23-2.29,1.52-3.65,0.76l0,0c-0.15,0.31-0.3,0.46-0.45,0.76c0,0,0,0,0.15,0c1.21,0.77,1.66,2.44,0.9,3.67 c-0.75,1.09-2.27,1.7-3.64,0.94l0,0c-0.15,0.3-0.29,0.45-0.45,0.76h0.15c1.2,0.76,1.81,2.28,1.2,3.51c-0.6,1.38-2.27,2-3.49,1.38 c-0.15,0-0.15,0-0.15,0c0,0.16-0.15,0.46-0.3,0.77l0,0c1.37,0.46,1.98,2.13,1.51,3.36c-0.45,1.38-1.97,2.15-3.33,1.53h-0.16 c0,0.31-0.16,0.62-0.3,0.77c0.14,0,0.14,0,0.14,0c1.37,0.6,2.14,1.98,1.68,3.37c-0.46,1.37-1.82,2.28-3.34,1.82l0,0 c-0.15,0.16-0.15,0.46-0.31,0.76c0.16,0,0.16,0,0.16,0c1.35,0.48,2.28,1.85,1.97,3.23c-0.47,1.38-1.82,2.29-3.34,1.99l0,0 c0,0.3-0.16,0.59-0.16,0.75l0,0c1.53,0.3,2.43,1.69,2.28,3.22c-0.28,1.38-1.66,2.3-3.02,2.14c-0.16,0-0.16,0-0.16,0 c0,0.31,0,0.47-0.15,0.77c0.15,0,0.15,0,0.15,0c1.52,0.3,2.43,1.52,2.27,2.91c-0.14,1.53-1.37,2.6-2.89,2.46l0,0 c0,0.3,0,0.61-0.15,0.77c0.15,0,0.15,0,0.15,0c1.52,0.15,2.58,1.36,2.58,2.9c-0.15,1.37-1.36,2.6-2.87,2.6v0v0.01v0.01v0.01v0.02 v0.02v0.02v0.02v0.02v0.02v0.02v0.03v0.03v0.03v0.03v0.03v0.02v0.01v0.02v0.02v0.01v0.01v0.02v0.02v0.02v0.01v0.01v0.01v0.01 v0.01v0.02v0.01v0.02v0.01v0.01v0.01v0.02v0.01v0.01v0.01v0.01v0.01v0.01v0.01v0.01v0.01v0.01v0.01c1.51,0,2.72,1.22,2.87,2.61 c0,1.38-1.06,2.6-2.58,2.74c0,0,0,0-0.15,0c0.15,0.3,0.15,0.61,0.15,0.77l0,0c1.52,0,2.74,1.07,2.89,2.45 c0.16,1.39-0.75,2.75-2.27,2.91c0,0,0,0-0.15,0c0.15,0.3,0.15,0.61,0.15,0.92c0,0,0,0,0.16,0c1.37-0.31,2.74,0.77,3.02,2.14 c0.16,1.38-0.75,2.77-2.28,3.07l0,0c0,0.3,0.16,0.61,0.16,0.76l0,0c1.52-0.3,2.87,0.6,3.34,1.99c0.31,1.39-0.61,2.91-1.97,3.22 c0,0.14,0,0.14-0.16,0.14c0.16,0.16,0.16,0.47,0.31,0.76l0,0c1.52-0.45,2.87,0.31,3.34,1.69c0.46,1.38-0.31,2.9-1.68,3.36 c0,0,0,0-0.14,0c0.14,0.3,0.3,0.62,0.3,0.77h0.16c1.36-0.47,2.88,0.15,3.33,1.53c0.46,1.39-0.14,2.92-1.51,3.53l0,0 c0.15,0.29,0.3,0.46,0.3,0.74c0,0,0,0,0.15,0c1.22-0.61,2.89,0,3.49,1.23c0.61,1.24,0,2.91-1.2,3.54l-0.15,0.13 c0.15,0.17,0.3,0.46,0.45,0.63l0,0c1.37-0.63,2.89-0.17,3.64,1.07c0.77,1.23,0.31,2.9-0.9,3.67c-0.15,0-0.15,0-0.15,0 c0.15,0.15,0.3,0.45,0.45,0.77c0-0.16,0-0.16,0-0.16c1.36-0.77,2.89-0.31,3.65,0.91c0.75,1.23,0.6,2.76-0.76,3.69l0,0 c0.15,0.15,0.3,0.45,0.46,0.62c0,0,0,0,0.13,0c1.22-0.92,2.9-0.62,3.65,0.45c0.91,1.23,0.62,2.9-0.45,3.82c0,0,0,0-0.17,0 c0.31,0.3,0.46,0.45,0.62,0.62l0,0c1.07-0.93,2.87-0.77,3.8,0.31c0.91,1.06,0.75,2.75-0.3,3.67c0,0.15,0,0.15,0,0.15 c0.14,0.17,0.3,0.32,0.6,0.6v-0.14c1.07-0.91,2.74-0.91,3.65,0.14c1.05,0.95,1.05,2.62,0.15,3.69c0,0,0,0-0.15,0.17 c0.3,0.14,0.46,0.29,0.59,0.45h0.16c0.92-1.06,2.59-1.22,3.65-0.31c1.07,1.07,1.21,2.77,0.31,3.83l0,0 c0.15,0.16,0.45,0.47,0.61,0.6c0,0,0,0,0-0.14c0.91-1.09,2.57-1.38,3.79-0.47c1.05,0.92,1.37,2.61,0.46,3.83l0,0 c0.15,0.16,0.46,0.31,0.59,0.47l0,0c0.92-1.22,2.45-1.53,3.81-0.77c1.21,0.77,1.52,2.31,0.74,3.66l0,0 c0.16,0.16,0.46,0.31,0.63,0.46c0,0,0,0,0.15,0c0.75-1.38,2.27-1.82,3.47-1.07c1.24,0.77,1.69,2.29,1.07,3.67l0,0 c0.16,0.14,0.47,0.31,0.76,0.46c0,0,0,0,0-0.15c0.61-1.23,2.28-1.85,3.48-1.23c1.36,0.61,1.82,2.29,1.22,3.67l0,0 c0.31,0.15,0.59,0.15,0.77,0.3l0,0c0.61-1.37,2.11-1.99,3.48-1.53c1.37,0.46,1.98,1.99,1.52,3.37c0,0.16,0,0.16,0,0.16 c0.29,0.14,0.46,0.14,0.75,0.29v-0.15c0.45-1.37,1.97-2.15,3.33-1.68c1.38,0.46,2.14,1.84,1.66,3.37l0,0 c0.32,0.16,0.62,0.16,0.94,0.31v-0.15c0.29-1.38,1.8-2.3,3.18-1.98c1.36,0.45,2.27,1.82,1.97,3.36l0,0 c0.15,0,0.45,0.15,0.76,0.15l0,0c0.3-1.38,1.67-2.44,3.02-2.29c1.37,0.3,2.45,1.67,2.27,3.05c0,0.15,0,0.15-0.14,0.15 c0.32,0,0.62,0.16,0.91,0.16v-0.16c0.16-1.37,1.52-2.44,2.89-2.29c1.38,0.14,2.43,1.38,2.43,2.92l0,0c0.3,0,0.45,0.13,0.75,0.13 c0-0.13,0-0.13,0-0.13c0.16-1.54,1.38-2.62,2.75-2.62c1.51,0.15,2.57,1.4,2.57,2.92l0,0c0.15,0,0.31,0,0.46,0 c0.15,0,0.31,0,0.46,0l0,0c0-1.53,1.06-2.78,2.43-2.92c1.51,0,2.74,1.07,2.87,2.62c0,0,0,0,0,0.13c0.16,0,0.47-0.13,0.76-0.13 l0,0c-0.15-1.54,0.92-2.78,2.43-2.92c1.37-0.15,2.74,0.91,2.9,2.29v0.16c0.29,0,0.45-0.16,0.75-0.16c0,0,0,0,0-0.15 c-0.15-1.38,0.76-2.75,2.28-3.05c1.37-0.15,2.73,0.91,3.04,2.29l0,0c0.3,0,0.46-0.15,0.76-0.15l0,0 c-0.3-1.54,0.61-2.91,1.96-3.36c1.37-0.32,2.73,0.6,3.19,1.98v0.15c0.31-0.15,0.61-0.15,0.76-0.31l0,0 c-0.3-1.53,0.45-2.9,1.83-3.37c1.36-0.47,2.73,0.31,3.34,1.68v0.15c0.29-0.15,0.45-0.15,0.74-0.29c0,0,0,0,0-0.16 c-0.6-1.38,0.16-2.91,1.53-3.37c1.37-0.46,2.89,0.15,3.5,1.53l0,0c0.13-0.15,0.45-0.15,0.6-0.3l0,0c-0.6-1.38,0-3.06,1.36-3.67 c1.22-0.62,2.9,0,3.5,1.23c0,0.15,0,0.15,0,0.15c0.3-0.15,0.46-0.32,0.77-0.46l0,0c-0.77-1.38-0.17-2.91,1.05-3.67 c1.22-0.75,2.73-0.31,3.48,1.07c0,0,0,0,0.16,0c0.15-0.15,0.46-0.31,0.61-0.46l0,0c-0.77-1.36-0.46-2.9,0.74-3.66 c1.22-0.77,2.9-0.46,3.66,0.77l0,0c0.32-0.16,0.44-0.31,0.75-0.47l0,0c-0.91-1.22-0.75-2.9,0.46-3.83 c1.07-0.91,2.89-0.62,3.8,0.47c0,0.14,0,0.14,0,0.14c0.15-0.14,0.45-0.44,0.61-0.6l0,0c-0.92-1.06-0.77-2.76,0.14-3.83 c1.07-0.91,2.75-0.75,3.8,0.31l0,0c0.3-0.15,0.46-0.31,0.62-0.45c0-0.17,0-0.17,0-0.17c-1.08-1.07-0.92-2.74,0.15-3.69 c0.89-1.05,2.56-1.05,3.65-0.14v0.14c0.14-0.28,0.45-0.43,0.59-0.6c0,0-0.15,0-0.15-0.15c-1.06-0.92-1.06-2.61-0.15-3.67 c0.9-1.08,2.74-1.23,3.79-0.31l0,0c0.14-0.17,0.31-0.32,0.46-0.62l0,0c-1.06-0.92-1.36-2.59-0.46-3.82 c0.76-1.07,2.42-1.37,3.64-0.45c0,0,0,0,0.15,0c0.16-0.17,0.31-0.46,0.46-0.62h-0.15c-1.21-0.92-1.37-2.46-0.61-3.69 c0.61-1.37,2.28-1.68,3.48-0.91c0.17,0,0.17,0,0.17,0.16c0.15-0.32,0.29-0.62,0.45-0.77h-0.15c-1.22-0.77-1.66-2.44-0.91-3.67 c0.76-1.24,2.27-1.69,3.64-1.07l0,0c0.16-0.17,0.29-0.46,0.29-0.63c0-0.13,0-0.13,0-0.13c-1.35-0.63-1.81-2.3-1.19-3.54 c0.58-1.23,2.12-1.85,3.49-1.23l0,0c0.14-0.28,0.29-0.45,0.43-0.74l0,0c-1.36-0.61-2.12-2.14-1.51-3.53 c0.46-1.38,1.97-2,3.34-1.53c0,0,0,0,0.15,0c0-0.15,0.16-0.47,0.16-0.77l0,0c-1.37-0.45-2.14-1.98-1.68-3.36 c0.46-1.38,1.83-2.15,3.19-1.69c0.16,0,0.16,0,0.16,0c0-0.29,0.16-0.6,0.16-0.76c0,0,0,0,0-0.14c-1.52-0.32-2.28-1.84-1.98-3.22 c0.31-1.39,1.82-2.29,3.34-1.99l0,0c0-0.15,0-0.46,0.15-0.76l0,0c-1.51-0.3-2.43-1.69-2.28-3.07c0.16-1.36,1.51-2.45,3.04-2.14 c0,0,0,0,0.15,0c0-0.31,0-0.62,0-0.92l0,0c-1.51-0.16-2.42-1.52-2.26-2.91c0-1.37,1.36-2.45,2.73-2.45c0.15,0,0.15,0,0.15,0 c0-0.16,0-0.47,0-0.77l0,0c-1.52-0.14-2.74-1.36-2.58-2.74c0-1.54,1.36-2.61,2.73-2.61l0,0c0-0.15,0.15-0.3,0.15-0.46 c0-0.14-0.15-0.3-0.15-0.3l0,0c-1.37,0-2.73-1.23-2.73-2.6c-0.16-1.54,1.06-2.76,2.58-2.9l0,0c0-0.15,0-0.46,0-0.77 c0,0,0,0-0.15,0c-1.37,0.14-2.73-0.92-2.73-2.46c-0.16-1.39,0.76-2.61,2.26-2.91l0,0c0-0.3,0-0.46,0-0.77c-0.15,0-0.15,0-0.15,0 c-1.53,0.16-2.88-0.76-3.04-2.14c-0.14-1.53,0.77-2.92,2.28-3.22l0,0c-0.15-0.3-0.15-0.45-0.15-0.75l0,0 c-1.53,0.3-3.04-0.61-3.34-1.99c-0.3-1.38,0.46-2.75,1.98-3.23l0,0c0-0.3-0.16-0.6-0.16-0.76c0,0,0,0-0.16,0 c-1.36,0.46-2.72-0.45-3.19-1.82c-0.46-1.39,0.32-2.77,1.68-3.37l0,0c0-0.15-0.16-0.46-0.16-0.77c-0.15,0-0.15,0-0.15,0 c-1.37,0.62-2.88-0.16-3.34-1.53c-0.61-1.23,0.15-2.91,1.51-3.36l0,0c-0.14-0.3-0.29-0.61-0.43-0.77l0,0 c-1.37,0.62-2.91,0-3.49-1.38c-0.62-1.23-0.16-2.75,1.19-3.51l0,0c0-0.31-0.13-0.46-0.29-0.76l0,0 c-1.37,0.76-2.88,0.15-3.64-0.94c-0.76-1.23-0.31-2.89,0.91-3.67h0.15c-0.15-0.3-0.3-0.45-0.45-0.76c0,0,0,0-0.17,0 c-1.2,0.76-2.87,0.46-3.48-0.76c-0.76-1.22-0.6-2.76,0.61-3.67h0.15c-0.15-0.31-0.29-0.46-0.46-0.77c-0.15,0-0.15,0-0.15,0.15 c-1.22,0.77-2.89,0.63-3.64-0.6c-0.9-1.07-0.6-2.74,0.46-3.83l0,0c-0.14-0.14-0.32-0.3-0.46-0.61l0,0 c-1.05,0.91-2.89,0.91-3.79-0.14c-0.91-1.08-0.91-2.76,0.15-3.84h0.15c-0.15-0.3-0.45-0.45-0.59-0.61l0,0 c-1.08,1.07-2.75,1.07-3.65,0c-1.07-1.06-1.23-2.76-0.15-3.83l0,0c-0.16-0.14-0.32-0.3-0.62-0.6V60 c-1.05,1.07-2.73,1.07-3.8,0.16c-0.9-0.92-1.05-2.62-0.14-3.82l0,0c-0.16-0.16-0.46-0.31-0.61-0.47l0,0 c-0.91,1.23-2.73,1.38-3.8,0.47c-1.21-0.77-1.37-2.45-0.46-3.68l0,0c-0.31-0.31-0.44-0.46-0.75-0.61c0,0.15,0,0.15,0,0.15 c-0.76,1.23-2.43,1.38-3.66,0.76c-1.2-0.76-1.52-2.45-0.74-3.66v-0.16c-0.15-0.16-0.46-0.31-0.61-0.46 c-0.16,0.15-0.16,0.15-0.16,0.15c-0.76,1.22-2.26,1.68-3.48,0.91c-1.21-0.76-1.82-2.29-1.05-3.65l0,0 c-0.31-0.17-0.47-0.32-0.77-0.32l0,0c-0.6,1.37-2.28,1.83-3.5,1.23c-1.36-0.62-1.95-2.14-1.36-3.52l0,0 c-0.15-0.15-0.46-0.3-0.6-0.46v0.16c-0.61,1.22-2.13,1.98-3.5,1.52c-1.38-0.61-2.13-2.14-1.53-3.52l0,0 c-0.29-0.15-0.45-0.32-0.74-0.32l0,0c-0.61,1.38-1.98,2.15-3.34,1.69c-1.38-0.45-2.13-1.84-1.83-3.21c0-0.16,0-0.16,0-0.16 c-0.15,0-0.45-0.15-0.76-0.15l0,0c-0.46,1.51-1.82,2.29-3.19,1.99c-1.35-0.31-2.26-1.84-1.96-3.21c0-0.16,0-0.16,0-0.16 c-0.3,0-0.46,0-0.76-0.14l0,0c-0.31,1.53-1.67,2.43-3.04,2.3c-1.52-0.17-2.43-1.54-2.28-3.07c0,0,0,0,0-0.15 c-0.31,0-0.46,0-0.75,0l0,0c-0.15,1.54-1.52,2.6-2.9,2.29c-1.51,0-2.58-1.36-2.43-2.76v-0.14c-0.29,0-0.59,0-0.76,0l0,0 c-0.14,1.53-1.36,2.74-2.87,2.59C101.54,38.58,100.48,37.2,100.48,35.83L100.48,35.83z M10,126.88v-0.77V126.88z" style="clip-rule: evenodd; fill: rgb(0, 78, 132); fill-rule: evenodd;"/>
        <path class="st1" d="M149.75,178.73c0.28-0.41,0.68-0.65,1.16-0.74c0.48-0.06,0.92,0.04,1.34,0.33c0.39,0.3,0.63,0.68,0.71,1.17 c0.06,0.5-0.04,0.94-0.32,1.36c-0.28,0.39-0.68,0.63-1.17,0.71c-0.49,0.09-0.93-0.03-1.33-0.32c-0.39-0.29-0.65-0.68-0.72-1.18 C149.36,179.58,149.46,179.12,149.75,178.73L149.75,178.73z M45.07,174.06c0.3,0.41,0.4,0.86,0.31,1.35 c-0.1,0.48-0.33,0.88-0.74,1.15c-0.41,0.28-0.85,0.39-1.34,0.3c-0.49-0.07-0.86-0.33-1.15-0.74c-0.29-0.4-0.38-0.86-0.29-1.35 c0.08-0.49,0.32-0.87,0.74-1.16c0.4-0.29,0.85-0.38,1.35-0.3C44.41,173.4,44.8,173.65,45.07,174.06z" style="fill: rgb(0, 78, 132);"/>
        <path class="st2" d="M100.01,191.14c35.37,0,64.2-28.9,64.2-64.72c0-35.65-28.83-64.7-64.2-64.7c-35.51,0-64.18,29.05-64.18,64.7 C35.84,162.24,64.51,191.14,100.01,191.14L100.01,191.14z M143.9,170.49c-11.69,11.8-27.32,18.37-43.88,18.37 c-16.54,0-32.02-6.57-43.7-18.37c-11.71-11.78-18.22-27.39-18.22-44.08c0-16.68,6.51-32.45,18.22-44.24 c11.68-11.76,27.16-18.2,43.7-18.2c16.56,0,32.19,6.43,43.88,18.2c11.69,11.8,18.06,27.56,18.06,44.24 C161.96,143.1,155.59,158.71,143.9,170.49L143.9,170.49z M130.83,100.1h0.63v41.31h-22.78c-5.01,0-8.35,2.15-8.35,2.15l-0.31,0.3 l-0.31-0.3c0,0-3.47-2.15-8.49-2.15H68.6V100.1h22.62c4.56,0,7.74,2.6,8.8,3.52c1.07-0.92,4.25-3.52,8.66-3.52H130.83 L130.83,100.1z M133.42,101.63h0.91v42.86h-25.66c-5.01,0-8.51,1.36-8.51,1.36l-0.15,0.16l-0.15-0.16c-0.16,0-3.5-1.36-8.65-1.36 H65.57v-42.86h1.05c0,0,0,40.87,0,41.79c0.9,0,24.59,0,24.59,0c4.71,0,7.9,1.22,8.8,1.53c0.76-0.31,4.11-1.53,8.66-1.53 c0,0,23.68,0,24.75,0C133.42,142.49,133.42,101.63,133.42,101.63L133.42,101.63z M136.3,102.38h1.06v45.16h-28.69 c-5.01,0-8.51,0.6-8.51,0.6h-0.3c0,0-3.5-0.6-8.65-0.6H62.68v-45.16h0.91c0,0,0,43.02,0,44.1c1.06,0,27.63,0,27.63,0 c4.87,0,8.2,0.6,8.8,0.75c0.6-0.15,3.95-0.75,8.66-0.75c0,0,26.71,0,27.63,0C136.3,145.4,136.3,102.38,136.3,102.38L136.3,102.38 z M139.5,104.54h2.27v47.29h-33.25c-0.31-0.62-0.93-1.08-1.68-1.08c-0.76,0-1.36,0.45-1.53,1.08H94.71 c-0.31-0.62-0.92-1.08-1.67-1.08c-0.6,0-1.22,0.45-1.52,1.08H58.27v-47.29h2.28c0,0,0,42.69,0,44.99c1.52,0,77.43,0,78.95,0 C139.5,147.23,139.5,104.54,139.5,104.54L139.5,104.54z M118.4,76.21c0,0,0.76,0,1.05,0c0,0.47,0,2.15,0,2.15l2.43,0.3 c0,0,0-1.67,0-2.14c0.89,0.16,1.97,0.47,1.97,0.47c0,0.3,0.15,4.58,0.15,4.58l-1.37,1.53c-0.14,0.16-0.14,0.16-0.29,0.16 c0,0-1.68-0.46-2.73-0.62c-0.16-0.15-1.52-1.69-1.52-1.69v10.86l0.46,1.07c0,0.16,0.15,3.22,0.15,3.67c-0.61,0-5.76,0-6.38,0 c0.16-0.45,0.16-3.36,0.16-3.51c0.15-0.16,0.91-1.23,0.91-1.23l0.46-8.72l-1.06-1.53c0,0,0-4.28,0-4.58 c0.15,0,1.06-0.31,1.97-0.47c0,0.47,0,2.14,0,2.14l2.42-0.3c0,0,0-1.68,0-2.15C117.47,76.21,118.4,76.21,118.4,76.21L118.4,76.21 z M121.12,84.95c0,0.91,0.14,4.13,0.14,4.13l-0.61-0.16l-0.45-0.14c0,0,0-3.07-0.16-3.99L121.12,84.95L121.12,84.95z M103.21,82.5c0.15,1.06,0.15,4.88,0.15,4.88l-0.61-0.14l-0.61-0.16c0,0,0-3.68,0-4.91L103.21,82.5L103.21,82.5z M100.01,72.24 c0,0,1.07,0,1.37,0c0,0.46,0,2.61,0,2.61l2.58,0.31c0,0,0-2,0-2.61c0.61,0.15,2.28,0.61,2.43,0.61c0,0.31,0.15,5.36,0.15,5.36 l-1.5,1.83c-0.15,0.16-0.15,0.16-0.32,0.16c-0.75-0.16-2.11-0.46-3.33-0.61c-0.15-0.16-1.68-2-1.68-2v12.71 c0,0,0.62,1.21,0.62,1.37c0,0,0,6.13,0,7.03c-0.92-0.75-3.34-2.44-7.29-2.44c0-0.45,0.15-4.43,0.15-4.59 c0.14-0.16,0.91-1.37,0.91-1.37l0.6-10.4l-1.38-1.7c0,0,0.3-5.04,0.3-5.36c0,0,1.23-0.3,2.29-0.61c0,0.61,0,2.61,0,2.61 l2.72-0.31c0,0,0-2.15,0-2.61C98.95,72.24,100.01,72.24,100.01,72.24L100.01,72.24z M115.19,84.95l1.07-0.15 c0,0.92,0,3.99,0,3.99l-0.62,0.14l-0.45,0.16C115.19,89.08,115.19,85.86,115.19,84.95L115.19,84.95z M96.37,82.5l1.22-0.33 c0,1.23,0,4.91,0,4.91l-0.6,0.16l-0.62,0.14C96.37,87.38,96.37,83.57,96.37,82.5L96.37,82.5z M78.92,84.95l1.06-0.15 c0,0.92-0.17,3.99-0.17,3.99l-0.44,0.14l-0.46,0.16C78.92,89.08,78.92,85.86,78.92,84.95L78.92,84.95z M84.85,84.95 c0,0.91,0,4.13,0,4.13l-0.46-0.16l-0.61-0.14c0,0,0-3.07,0-3.99L84.85,84.95L84.85,84.95z M81.96,76.21c0,0,0.9,0,1.21,0 c0,0.47,0,2.15,0,2.15l2.28,0.3c0,0,0-1.67,0-2.14C86.05,76.69,87.4,77,87.4,77c0,0.3,0.18,4.58,0.18,4.58l-1.37,1.53 c0,0.16,0,0.16-0.17,0.16c0,0-1.66-0.46-2.87-0.62c-0.15-0.15-1.37-1.69-1.37-1.69v10.86l0.45,1.07c0,0.16,0,3.22,0,3.67 c-0.45,0-5.76,0-6.23,0c0-0.45,0.18-3.36,0.18-3.51c0.13-0.16,0.75-1.23,0.75-1.23l0.58-8.72l-1.2-1.53c0,0,0.16-4.28,0.16-4.58 c0,0,1.36-0.31,1.97-0.47c0,0.47,0,2.14,0,2.14l2.43-0.3c0,0,0-1.68,0-2.15C81.19,76.21,81.96,76.21,81.96,76.21L81.96,76.21z M111.71,160.86l-0.6-0.16c-0.16,0-0.31,0-0.31-0.15c0-0.17,0-0.31,0.14-0.31c0.61,0,1.67,0.15,2.43,0.15 c0.31,0,1.81-0.15,2.12-0.15c0.15,0,0.15,0.15,0.15,0.31c0,0,0,0.15-0.15,0.15l-0.45,0.16c-0.77,0-0.92,0-1.22,0.91 c-0.91,3.53-1.22,4.9-1.22,5.2c0,0.47,0.16,0.79,0.6,0.92h0.46c0.45,0,0.6,0,0.6,0.17c0,0.14-0.15,0.29-0.29,0.29 c-0.62,0-1.38,0-2.13,0c-0.76,0-1.83,0-2.28,0c-0.14,0-0.14,0-0.14-0.15c0-0.14,0-0.31,0-0.31c0.14,0,0.28,0,0.45,0h0.3 c0.61-0.13,0.76-0.29,0.92-0.92c0.29-0.89,1.36-5.04,1.36-5.5C112.47,160.86,112,160.86,111.71,160.86L111.71,160.86z M105.64,161.47c-0.61-1.08-1.38-2.14-1.38-3.21c0-1.23,0.77-2,1.97-2c0.93,0,1.52,0.77,1.52,1.69 C107.76,160.1,106.09,161.17,105.64,161.47L105.64,161.47z M103.67,168.05c-0.93,0-1.53-0.93-1.53-1.85 c0-1.82,1.38-2.9,2.44-3.67c0.31,0.46,1.21,1.85,1.21,2.92C105.78,166.37,105.19,168.05,103.67,168.05L103.67,168.05z M104.42,162.24c-0.75-1.07-1.37-1.99-1.37-3.06c0-2.15,1.66-3.38,3.34-3.38c1.21,0,2.43,0.76,2.43,2.3 c0,1.69-1.21,2.46-2.87,3.67c0.59,1.09,1.22,1.69,1.22,3.07c0,1.84-1.52,3.51-3.5,3.51c-2.28,0-2.58-1.82-2.58-2.27 C101.09,164.07,102.91,163.15,104.42,162.24L104.42,162.24z M99.25,161.77c0,0.15-0.13,0.31-0.3,0.31c-0.3,0-3.03-0.45-3.33-0.45 c-0.45,0-0.76,1.07-0.76,1.23c0,0.29,0.44,0.76,1.21,1.36c0.74,0.62,1.97,1.53,1.97,3.38c0,3.22-3.81,5.21-5.61,5.21 c-0.17,0-0.32,0-0.32-0.16c0,0,0,0,0-0.15c0,0,0.15-0.15,0.32-0.15c1.96-0.62,4.09-2,4.09-4.14c0-1.67-1.07-2.6-2.42-3.67 c-0.32-0.15-0.32-0.15-0.32-0.32c0-0.3,1.38-3.05,1.38-3.2c0.14-0.31,0.29-0.62,0.6-0.62c0,0,2.87,0.31,3.34,0.31 c0.13,0,0.29,0,0.44-0.15l0.31-0.31c0-0.15,0.15-0.15,0.15-0.15c0.15,0,0.15,0,0.15,0.15c0,0,0,0.15-0.15,0.31L99.25,161.77 L99.25,161.77z M87.58,160.86l-0.61-0.16c-0.3,0-0.3,0-0.3-0.15c0-0.17,0-0.31,0.14-0.31c0.6,0,1.67,0.15,2.43,0.15 c0.3,0,1.82-0.15,2.12-0.15c0.16,0,0.16,0.15,0.16,0.31c0,0,0,0.15-0.16,0.15l-0.6,0.16c-0.61,0-0.92,0-1.07,0.91 c-0.91,3.53-1.22,4.9-1.22,5.2c0,0.47,0.16,0.79,0.62,0.92h0.44c0.47,0,0.62,0,0.62,0.17c0,0.14-0.16,0.29-0.32,0.29 c-0.6,0-1.37,0-2.13,0c-0.75,0-1.82,0-2.27,0c-0.16,0-0.16,0-0.16-0.15c0-0.14,0-0.31,0-0.31c0.16,0,0.3,0,0.47,0h0.29 c0.46-0.13,0.76-0.29,0.93-0.92c0.15-0.89,1.2-5.04,1.2-5.5C88.17,160.86,87.88,160.86,87.58,160.86L87.58,160.86z M133.91,171.37l-2.21,1.61l-0.76-3.43L133.91,171.37L133.91,171.37z M134.32,171.63l-2.5,1.83l0.28,1.35 c0.08,0.34,0.18,0.56,0.27,0.69c0.06,0.1,0.17,0.15,0.32,0.15c0.15,0,0.4-0.08,0.71-0.29l0.12,0.18l-2.02,1.49l-0.13-0.18 c0.23-0.25,0.37-0.44,0.38-0.57c0.07-0.27,0.01-0.72-0.13-1.32l-1.58-7.03l0.15-0.12l6.15,3.76c0.5,0.32,0.87,0.48,1.1,0.48 c0.24,0.03,0.51-0.04,0.78-0.22l0.14,0.17l-2.56,1.85l-0.12-0.17c0.25-0.2,0.4-0.37,0.42-0.5c0.03-0.14,0.02-0.26-0.05-0.38 c-0.11-0.13-0.33-0.32-0.68-0.53L134.32,171.63L134.32,171.63z M127.13,179.3l0.08,0.18l-3.08,1.47l-0.1-0.2l0.24-0.12 c0.31-0.14,0.47-0.32,0.54-0.56c0.03-0.16-0.05-0.45-0.25-0.9l-2.19-4.7c-0.17-0.37-0.31-0.6-0.41-0.7 c-0.08-0.07-0.19-0.12-0.32-0.13c-0.19-0.02-0.38,0.02-0.55,0.11l-0.25,0.1l-0.09-0.19l3.09-1.46l0.11,0.21l-0.28,0.1 c-0.29,0.15-0.47,0.35-0.51,0.58c-0.04,0.16,0.05,0.45,0.25,0.89l2.18,4.71c0.17,0.37,0.32,0.6,0.4,0.7 c0.08,0.08,0.18,0.11,0.33,0.12c0.2,0.01,0.37-0.02,0.55-0.09L127.13,179.3L127.13,179.3z M109.15,177.36l2.08-0.56l6.25,4.56 l-1.2-4.48c-0.11-0.48-0.24-0.77-0.38-0.84c-0.18-0.13-0.42-0.16-0.73-0.07l-0.26,0.07l-0.06-0.21l2.68-0.73l0.07,0.22 l-0.28,0.08c-0.34,0.08-0.53,0.25-0.61,0.47c-0.05,0.15-0.02,0.43,0.1,0.87l1.74,6.55l-0.22,0.05l-6.74-4.87l1.29,4.78 c0.11,0.48,0.25,0.75,0.39,0.85c0.18,0.13,0.42,0.14,0.73,0.07l0.27-0.08l0.04,0.2l-2.68,0.74l-0.06-0.2l0.27-0.07 c0.33-0.1,0.54-0.26,0.63-0.5c0.05-0.15,0.02-0.44-0.1-0.87l-1.43-5.39c-0.29-0.21-0.52-0.33-0.65-0.39 c-0.13-0.06-0.34-0.08-0.58-0.09c-0.11,0-0.28,0.02-0.5,0.08L109.15,177.36L109.15,177.36z M101.55,175.41l1.1-0.02l1.18,1.93 h-0.18l-1.65-1.21l-1.29,1.31h-0.2L101.55,175.41L101.55,175.41z M103.38,182.86l-2.75,0.1l1.29-3.3L103.38,182.86L103.38,182.86 z M103.55,183.3l-3.08,0.11l-0.51,1.29c-0.12,0.32-0.17,0.55-0.17,0.71c0.01,0.12,0.07,0.21,0.18,0.31 c0.13,0.08,0.38,0.12,0.78,0.15v0.21l-2.53,0.1l-0.01-0.22c0.34-0.08,0.56-0.16,0.64-0.25c0.2-0.19,0.4-0.59,0.63-1.18l2.59-6.72 h0.19l3,6.58c0.24,0.54,0.45,0.88,0.63,1.02c0.2,0.17,0.44,0.24,0.77,0.25v0.21l-3.13,0.12v-0.22c0.31-0.04,0.52-0.1,0.64-0.19 c0.11-0.1,0.16-0.21,0.16-0.34c0-0.18-0.1-0.45-0.28-0.83L103.55,183.3L103.55,183.3z M87.88,184.82l-1.76-7.24l-1.02,5.27 c-0.08,0.49-0.08,0.79,0,0.94c0.09,0.19,0.32,0.31,0.64,0.38l0.26,0.04l-0.04,0.22l-2.72-0.53l0.04-0.21l0.27,0.05 c0.33,0.06,0.59,0,0.77-0.16c0.11-0.12,0.21-0.39,0.3-0.84l0.97-5.15c0.08-0.36,0.1-0.61,0.04-0.79 c-0.04-0.13-0.12-0.24-0.24-0.34c-0.13-0.1-0.36-0.19-0.68-0.24l0.06-0.22l2.21,0.44l1.65,6.73l3.99-5.61l2.21,0.42l-0.05,0.23 l-0.26-0.05c-0.35-0.07-0.6,0-0.78,0.15c-0.12,0.13-0.19,0.39-0.28,0.84l-1,5.15c-0.1,0.48-0.1,0.79-0.01,0.93 c0.11,0.2,0.31,0.33,0.63,0.39l0.26,0.05l-0.02,0.2l-3.34-0.64l0.05-0.2l0.27,0.05c0.34,0.07,0.59,0.02,0.76-0.16 c0.11-0.1,0.21-0.38,0.29-0.84l1.02-5.26l-4.3,6.05L87.88,184.82L87.88,184.82z M77.96,173.29c0.69,0.31,1.14,0.8,1.29,1.46 c0.23,0.85,0.06,1.89-0.48,3.15c-0.51,1.15-1.12,1.9-1.81,2.24c-0.68,0.32-1.36,0.35-2.05,0.04c-0.65-0.28-1.05-0.77-1.23-1.43 c-0.22-0.86-0.06-1.91,0.47-3.12c0.52-1.16,1.14-1.94,1.91-2.33C76.68,173,77.3,173,77.96,173.29L77.96,173.29z M78.24,172.95 c0.95,0.42,1.6,1.15,1.98,2.19c0.37,1.04,0.32,2.09-0.16,3.17c-0.49,1.12-1.26,1.88-2.27,2.31c-1.03,0.43-2.04,0.41-3.03-0.03 c-1-0.43-1.68-1.18-2.06-2.21c-0.36-1.03-0.29-2.12,0.22-3.25c0.51-1.17,1.33-1.94,2.44-2.32 C76.33,172.46,77.28,172.51,78.24,172.95L78.24,172.95z M65.2,169.32l2-2.66c0.35,0.16,0.63,0.32,0.81,0.45 c0.41,0.32,0.65,0.7,0.71,1.14c0.05,0.44-0.07,0.86-0.38,1.27c-0.29,0.4-0.7,0.63-1.21,0.66c-0.5,0.03-1.07-0.18-1.68-0.65 c-0.03-0.01-0.06-0.05-0.1-0.08C65.3,169.4,65.26,169.37,65.2,169.32L65.2,169.32z M67.24,176.07l-1.67-1.3l0.07-4.64 c-0.17-0.12-0.29-0.21-0.4-0.29c-0.03-0.03-0.07-0.06-0.12-0.1c-0.04-0.03-0.09-0.07-0.13-0.11l-1.4,1.86 c-0.31,0.4-0.45,0.69-0.44,0.86c0.02,0.22,0.14,0.44,0.38,0.61l0.25,0.19l-0.13,0.17l-2.73-2.06l0.13-0.18l0.23,0.18 c0.29,0.2,0.53,0.26,0.79,0.18c0.14-0.04,0.35-0.26,0.62-0.61l3.1-4.16c0.31-0.41,0.45-0.69,0.42-0.85 c-0.01-0.24-0.15-0.44-0.38-0.63l-0.24-0.17l0.13-0.18l2.32,1.76c0.68,0.52,1.14,0.93,1.39,1.28c0.23,0.34,0.38,0.74,0.41,1.18 c0.01,0.43-0.1,0.83-0.37,1.2c-0.31,0.4-0.69,0.64-1.17,0.74c-0.46,0.09-1.01,0-1.63-0.28l-0.06,2.84 c-0.01,0.66,0.03,1.12,0.14,1.43c0.1,0.3,0.33,0.6,0.65,0.91L67.24,176.07L67.24,176.07z M100.01,190.53 c-35.19,0-63.58-28.63-63.58-64.11c0-35.33,28.39-64.09,63.58-64.09c35.04,0,63.6,28.76,63.6,64.09 C163.62,161.9,135.06,190.53,100.01,190.53z" style="clip-rule: evenodd; fill: rgb(0, 78, 132); fill-rule: evenodd;"/>
        <path class="st2" d="M78.16,112.33l0.45,0.63H77.4l0.31-0.63v-6.27h-0.62l-0.45,0.93v-1.54h2.57v1.54l-0.29-0.93h-0.76V112.33 L78.16,112.33z M80.74,106.06h0.45l0.16,0.17c0.15,0.15,0.15,0.15,0.31,0.3c0,0.15,0,0.31,0,0.47c0.15,0.15,0.15,0.46,0.15,0.61 c0,0.15,0,0.3-0.15,0.45c0,0.14,0,0.3,0,0.45c-0.15,0.15-0.15,0.32-0.31,0.32c0,0.15-0.16,0.15-0.16,0.15h-0.45V106.06 L80.74,106.06z M82.57,112.33l-0.91-3.05c0.3,0,0.46-0.31,0.6-0.62c0.16-0.3,0.16-0.76,0.16-1.06c0-0.31,0-0.61-0.16-0.93 c0-0.3-0.14-0.45-0.29-0.61c-0.16-0.15-0.16-0.29-0.3-0.45c-0.15,0-0.31-0.16-0.6-0.16h-1.23l0.31,0.77v6.11l-0.31,0.63h1.23 l-0.31-0.63v-2.75h0.45l0.92,3.38h0.74L82.57,112.33L82.57,112.33z M84.54,107.29l-0.61,3.05h1.05L84.54,107.29L84.54,107.29z M83.62,112.33l0.31,0.63h-1.08l0.46-0.63l1.07-6.88h0.46l1.05,6.88l0.46,0.63h-1.37l0.3-0.63l-0.15-1.36h-1.21L83.62,112.33 L83.62,112.33z M87.58,112.33h0.44c0.15,0,0.31,0,0.45-0.13c0.16-0.31,0.31-0.47,0.31-0.79c0.16-0.28,0.16-0.61,0.31-1.06 c0-0.3,0-0.77,0-1.06c0-0.45,0-0.78,0-1.09c-0.15-0.44-0.15-0.75-0.31-1.06c0-0.3-0.15-0.61-0.31-0.76 c-0.15-0.15-0.3-0.31-0.45-0.31h-0.44V112.33L87.58,112.33z M86.67,112.96l0.3-0.63v-6.11l-0.3-0.77h1.51 c0.3,0,0.46,0.16,0.61,0.31c0.31,0.29,0.45,0.61,0.59,0.9c0.15,0.32,0.15,0.78,0.31,1.23c0,0.45,0.15,0.93,0.15,1.38 c0,0.46-0.15,0.92-0.15,1.38c-0.16,0.47-0.16,0.92-0.31,1.23c-0.14,0.31-0.29,0.61-0.59,0.77c-0.15,0.3-0.31,0.3-0.61,0.3H86.67 L86.67,112.96z M90.46,105.45h1.2l-0.3,0.77v6.11l0.3,0.63h-1.2l0.31-0.63v-6.11L90.46,105.45L90.46,105.45z M93.94,112.33 l0.3,0.63h-1.2l0.29-0.63v-6.27h-0.61l-0.45,0.93v-1.54h2.74v1.54l-0.46-0.93h-0.62V112.33L93.94,112.33z M95.62,105.45h1.19 l-0.28,0.77v6.11l0.28,0.63h-1.19l0.3-0.63v-6.11L95.62,105.45L95.62,105.45z M98.65,106.22c-0.15,0.3-0.15,0.45-0.3,0.77 c0,0.3-0.15,0.77-0.15,1.06c0,0.45,0,0.78,0,1.23c0,0.3,0,0.77,0,1.06c0,0.46,0.15,0.78,0.15,1.06c0.15,0.31,0.15,0.62,0.3,0.79 c0.15,0.29,0.3,0.29,0.47,0.29c0.13,0,0.29,0,0.44-0.29c0.15-0.17,0.15-0.47,0.31-0.79c0-0.28,0-0.61,0.15-1.06 c0-0.3,0-0.77,0-1.06c0-0.45,0-0.78,0-1.23c-0.15-0.3-0.15-0.76-0.15-1.06c-0.16-0.32-0.16-0.47-0.31-0.77 c-0.15-0.17-0.31-0.31-0.44-0.31C98.95,105.91,98.8,106.06,98.65,106.22L98.65,106.22z M98.5,112.8 c-0.3-0.15-0.45-0.47-0.61-0.91c-0.14-0.31-0.14-0.76-0.3-1.23c0-0.46-0.15-0.91-0.15-1.38c0-0.45,0.15-1.09,0.15-1.53 c0.16-0.46,0.16-0.77,0.3-1.23c0.16-0.3,0.31-0.61,0.61-0.91c0.15-0.16,0.3-0.31,0.62-0.31c0.29,0,0.44,0.16,0.59,0.31 c0.31,0.3,0.46,0.61,0.62,0.91c0.15,0.47,0.15,0.77,0.28,1.23c0,0.44,0,1.07,0,1.53c0,0.46,0,0.92,0,1.38 c-0.14,0.47-0.14,0.92-0.28,1.23c-0.16,0.45-0.31,0.77-0.62,0.91c-0.15,0.3-0.3,0.46-0.59,0.46 C98.8,113.1,98.65,113.1,98.5,112.8L98.5,112.8z M104.27,112.33l0.31,0.63h-0.91l0.3-0.63v-6.11l-0.3-0.77h0.91l1.52,5.05v-4.28 l-0.31-0.77h0.9l-0.29,0.77v7.49l-2.13-6.73V112.33L104.27,112.33z M108.53,106.22c-0.16,0.3-0.16,0.45-0.31,0.77 c0,0.3-0.16,0.77-0.16,1.06c0,0.45,0,0.78,0,1.23c0,0.3,0,0.77,0,1.06c0,0.46,0.16,0.78,0.16,1.06c0.15,0.31,0.15,0.62,0.31,0.79 c0.15,0.29,0.29,0.29,0.44,0.29c0.16,0,0.32,0,0.47-0.29c0.14-0.17,0.14-0.47,0.28-0.79c0-0.28,0-0.61,0.16-1.06 c0-0.3,0-0.77,0-1.06c0-0.45,0-0.78,0-1.23c-0.16-0.3-0.16-0.76-0.16-1.06c-0.14-0.32-0.14-0.47-0.28-0.77 c-0.15-0.17-0.31-0.31-0.47-0.31C108.82,105.91,108.68,106.06,108.53,106.22L108.53,106.22z M108.22,112.8 c-0.16-0.15-0.3-0.47-0.46-0.91c-0.16-0.31-0.16-0.76-0.31-1.23c0-0.46-0.14-0.91-0.14-1.38c0-0.45,0.14-1.09,0.14-1.53 c0.15-0.46,0.15-0.77,0.31-1.23c0.16-0.3,0.3-0.61,0.46-0.91c0.31-0.16,0.46-0.31,0.75-0.31c0.32,0,0.47,0.16,0.61,0.31 c0.31,0.3,0.45,0.61,0.61,0.91c0,0.47,0.15,0.77,0.31,1.23c0,0.44,0,1.07,0,1.53c0,0.46,0,0.92,0,1.38 c-0.15,0.47-0.31,0.92-0.31,1.23c-0.15,0.45-0.3,0.77-0.61,0.91c-0.14,0.3-0.29,0.46-0.61,0.46 C108.68,113.1,108.53,113.1,108.22,112.8L108.22,112.8z M113.07,109.44c0,0.14,0.15,0.14,0.15,0.3c0,0.13,0,0.31,0.16,0.45 c0,0.15,0,0.3,0,0.61c0,0.32,0,0.47,0,0.77c-0.16,0.31-0.16,0.62-0.31,0.75c-0.14,0.32-0.14,0.47-0.29,0.63 c-0.16,0.14-0.47,0.14-0.62,0.14c-0.15,0-0.15,0-0.29,0l-0.76-0.3l0.45-1.39l0.31,1.08c0.14,0,0.29,0.16,0.29,0.16 c0.15,0,0.31-0.16,0.31-0.16c0.15-0.16,0.15-0.29,0.31-0.29c0-0.17,0-0.31,0-0.47c0-0.15,0.15-0.31,0.15-0.45 c0-0.14-0.15-0.3-0.15-0.61c0-0.16-0.16-0.31-0.16-0.46l-0.91-1.07c-0.15-0.15-0.31-0.47-0.31-0.77c-0.15-0.3-0.15-0.6-0.15-0.91 c0-0.31,0-0.61,0-0.93c0.15-0.15,0.15-0.46,0.31-0.61c0.15-0.15,0.15-0.3,0.31-0.3c0.14-0.16,0.29-0.16,0.45-0.16h0.16 c0,0,0,0,0.15,0l0.76,0.31l-0.45,1.22l-0.31-0.93c-0.15,0-0.15,0-0.15,0h-0.16c-0.15,0-0.15,0-0.31,0c0,0.17-0.14,0.17-0.14,0.31 c0,0,0,0.15-0.15,0.3c0,0.17,0,0.32,0,0.32c0,0.3,0,0.46,0.15,0.61c0,0.3,0.14,0.45,0.29,0.59L113.07,109.44L113.07,109.44z M115.5,112.33l0.3,0.63h-1.21l0.3-0.63v-6.27h-0.61l-0.29,0.93v-1.54h2.58v1.54l-0.46-0.93h-0.62V112.33L115.5,112.33z M118.08,106.06h0.31c0.15,0,0.15,0.17,0.3,0.17c0,0.15,0.15,0.15,0.15,0.3c0.16,0.15,0.16,0.31,0.16,0.47c0,0.15,0,0.46,0,0.61 c0,0.15,0,0.3,0,0.45c0,0.14,0,0.3-0.16,0.45c0,0.15-0.15,0.32-0.15,0.32c-0.15,0.15-0.15,0.15-0.3,0.15h-0.31V106.06 L118.08,106.06z M119.92,112.33l-0.91-3.05c0.15,0,0.45-0.31,0.45-0.62c0.16-0.3,0.31-0.76,0.31-1.06c0-0.31-0.15-0.61-0.15-0.93 c-0.16-0.3-0.16-0.45-0.31-0.61c-0.15-0.15-0.3-0.29-0.46-0.45c-0.15,0-0.3-0.16-0.44-0.16h-1.23l0.3,0.77v6.11l-0.3,0.63h1.23 l-0.31-0.63v-2.75h0.31l0.91,3.38h0.91L119.92,112.33L119.92,112.33z M121.73,107.29l-0.47,3.05h1.07L121.73,107.29 L121.73,107.29z M120.97,112.33l0.29,0.63h-1.05l0.3-0.63l1.22-6.88h0.3l1.21,6.88l0.29,0.63h-1.2l0.29-0.63l-0.29-1.36h-1.22 L120.97,112.33L120.97,112.33z M77.4,124.44c-0.15-0.15-0.31-0.3-0.45-0.46c-0.15-0.31-0.15-0.46-0.31-0.76c0-0.32,0-0.62,0-0.93 v-4.74l-0.44-0.76h1.2l-0.31,0.76v4.74c0,0.31,0,0.46,0.15,0.61c0,0.16,0,0.32,0.15,0.46c0,0.16,0.14,0.31,0.14,0.31 c0.17,0.15,0.31,0.15,0.31,0.15c0.15,0,0.31,0,0.31-0.15c0.16,0,0.3-0.15,0.3-0.31c0-0.14,0.15-0.3,0.15-0.46 c0-0.15,0-0.3,0-0.61v-4.74l-0.3-0.76h1.06l-0.32,0.76v4.74c0,0.31,0,0.61-0.14,0.93c0,0.3-0.15,0.45-0.31,0.76 c0,0.16-0.15,0.31-0.3,0.46c-0.16,0-0.31,0.15-0.47,0.15C77.71,124.58,77.54,124.44,77.4,124.44L77.4,124.44z M80.58,123.66 l0.32,0.77h-0.91l0.29-0.77v-6.13l-0.29-0.76h0.91l1.52,5.05v-4.29l-0.3-0.76h1.06l-0.31,0.76v7.51l-2.28-6.73V123.66 L80.58,123.66z M84.99,118.61l-0.45,3.06h0.91L84.99,118.61L84.99,118.61z M84.08,123.66l0.31,0.77h-0.91l0.3-0.77l1.21-6.88h0.3 l1.22,6.88l0.3,0.77h-1.22l0.31-0.77l-0.31-1.38h-1.2L84.08,123.66L84.08,123.66z M87.26,119.07c0.14-0.46,0.32-0.75,0.32-1.24 c0.13-0.3,0.3-0.6,0.59-0.75c0.16-0.31,0.3-0.31,0.61-0.31c0.16,0,0.31,0,0.31,0c0.14,0,0.29,0,0.29,0.15 c0.15,0,0.15,0,0.15,0.16c0.16,0,0.16,0,0.16,0.15v1.53l-0.45-1.07c-0.14-0.31-0.29-0.31-0.45-0.31c-0.15,0-0.31,0-0.45,0.31 c-0.16,0.13-0.16,0.46-0.31,0.76c0,0.31-0.15,0.61-0.15,1.07c0,0.31,0,0.77,0,1.07c0,0.3,0,0.75,0,1.06 c0.15,0.46,0.15,0.78,0.15,1.07c0.15,0.31,0.15,0.61,0.31,0.77c0.15,0.3,0.31,0.3,0.45,0.3c0.16,0,0.31-0.15,0.45-0.3l0.45-1.06 v1.52c0,0.16-0.16,0.31-0.31,0.31c-0.14,0.15-0.29,0.15-0.59,0.15c-0.31,0-0.45,0-0.61-0.3c-0.29-0.16-0.46-0.47-0.59-0.92 c-0.18-0.32-0.18-0.76-0.32-1.24c0-0.45-0.14-0.89-0.14-1.36C87.12,120.15,87.26,119.69,87.26,119.07L87.26,119.07z M91.36,124.44c-0.15-0.15-0.3-0.3-0.3-0.46c-0.16-0.31-0.29-0.46-0.29-0.76c0-0.32-0.15-0.62-0.15-0.93v-4.74l-0.31-0.76h1.22 l-0.31,0.76v4.74c0,0.31,0,0.46,0,0.61c0.15,0.16,0.15,0.32,0.31,0.46c0,0.16,0.14,0.31,0.14,0.31c0.16,0.15,0.16,0.15,0.32,0.15 c0.14,0,0.14,0,0.29-0.15c0.17,0,0.17-0.15,0.31-0.31c0-0.14,0.14-0.3,0.14-0.46c0-0.15,0-0.3,0-0.61v-4.74l-0.28-0.76h1.05 l-0.3,0.76v4.74c0,0.31-0.15,0.61-0.15,0.93c-0.17,0.3-0.17,0.45-0.32,0.76c-0.14,0.16-0.28,0.31-0.45,0.46 c0,0-0.15,0.15-0.45,0.15C91.66,124.58,91.53,124.44,91.36,124.44L91.36,124.44z M95.02,124.44h-0.91l0.29-0.77v-6.13l-0.29-0.76 h0.91l1.06,3.68l0.91-3.68h0.9l-0.3,0.76v6.13l0.3,0.77h-1.21l0.31-0.77v-5.5l-1.06,4.12l-1.21-4.12v5.5L95.02,124.44 L95.02,124.44z M103.21,124.44h-2.43l0.31-0.77v-6.13l-0.31-0.76h2.43v1.53l-0.46-0.93h-1.04v2.6h0.76l0.28-0.6v1.83l-0.28-0.6 h-0.76v3.2h1.04l0.46-0.92V124.44L103.21,124.44z M104.88,124.44c-0.17-0.15-0.31-0.3-0.46-0.46c-0.16-0.31-0.16-0.46-0.3-0.76 c0-0.32,0-0.62,0-0.93v-4.74l-0.32-0.76h1.23l-0.47,0.76v4.74c0,0.31,0.14,0.46,0.14,0.61c0,0.16,0.17,0.32,0.17,0.46 c0,0.16,0.15,0.31,0.31,0.31c0,0.15,0.13,0.15,0.31,0.15c0,0,0.15,0,0.29-0.15c0,0,0.16-0.15,0.16-0.31 c0.15-0.14,0.15-0.3,0.15-0.46c0.15-0.15,0.15-0.3,0.15-0.61v-4.74l-0.29-0.76h0.91l-0.31,0.76v4.74c0,0.31,0,0.61-0.15,0.93 c0,0.3-0.15,0.45-0.15,0.76c-0.15,0.16-0.29,0.31-0.46,0.46c-0.14,0-0.29,0.15-0.46,0.15 C105.19,124.58,105.04,124.44,104.88,124.44L104.88,124.44z M108.37,117.39v2.92h0.31c0.14,0,0.29,0,0.29-0.16 c0.16,0,0.16-0.16,0.16-0.3c0.16-0.16,0.16-0.31,0.16-0.46c0.15-0.15,0.15-0.31,0.15-0.46c0-0.15,0-0.45-0.15-0.6 c0-0.16,0-0.31-0.16-0.48c0-0.13,0-0.13-0.16-0.3c0,0-0.15-0.15-0.29-0.15H108.37L108.37,117.39z M110.19,123.66l0.31,0.77h-0.91 l-0.76-3.52h-0.45v2.75l0.31,0.77h-1.22l0.31-0.77v-6.13l-0.31-0.76h1.22c0.14,0,0.29,0.15,0.45,0.15 c0.16,0.16,0.31,0.31,0.45,0.46c0.14,0.15,0.31,0.45,0.31,0.62c0.15,0.31,0.15,0.61,0.15,0.91c0,0.31-0.15,0.77-0.15,1.07 c-0.16,0.32-0.31,0.62-0.6,0.77L110.19,123.66L110.19,123.66z M112,117.54c-0.14,0.3-0.14,0.47-0.29,0.78 c0,0.45-0.15,0.75-0.15,1.07c0,0.46,0,0.76,0,1.23c0,0.3,0,0.75,0,1.06c0,0.46,0.15,0.78,0.15,1.07 c0.15,0.47,0.15,0.61,0.29,0.92c0.15,0.15,0.31,0.31,0.46,0.31c0.15,0,0.31-0.16,0.46-0.31c0-0.31,0.14-0.45,0.14-0.92 c0.15-0.29,0.15-0.61,0.15-1.07c0.16-0.31,0.16-0.76,0.16-1.06c0-0.46,0-0.77-0.16-1.23c0-0.31,0-0.61-0.15-1.07 c0-0.31-0.14-0.48-0.14-0.78c-0.15-0.15-0.31-0.3-0.46-0.3C112.31,117.24,112.16,117.39,112,117.54L112,117.54z M111.71,124.13 c-0.15-0.16-0.31-0.47-0.46-0.78c-0.14-0.46-0.31-0.9-0.31-1.39c-0.14-0.45-0.14-0.89-0.14-1.36c0-0.46,0-0.92,0.14-1.38 c0-0.62,0.16-0.91,0.31-1.4c0.15-0.3,0.31-0.6,0.46-0.75c0.29-0.31,0.45-0.46,0.76-0.46c0.15,0,0.46,0.16,0.6,0.46 c0.15,0.15,0.31,0.45,0.46,0.75c0.16,0.48,0.31,0.94,0.47,1.4c0,0.46,0,0.91,0,1.38c0,0.46,0,0.91,0,1.36 c-0.16,0.48-0.31,0.92-0.47,1.39c-0.15,0.31-0.31,0.62-0.46,0.78c-0.14,0.3-0.45,0.45-0.6,0.45 C112.16,124.58,112,124.44,111.71,124.13L111.71,124.13z M116.12,120.61c0,0,0.15-0.15,0.31-0.15c0-0.15,0.15-0.15,0.15-0.31 c0.14-0.16,0.14-0.3,0.14-0.61c0.15-0.15,0.15-0.31,0.15-0.47c0-0.3,0-0.46-0.15-0.61c0-0.3,0-0.46-0.14-0.63 c0-0.13-0.15-0.13-0.15-0.3c-0.16,0-0.31-0.15-0.31-0.15h-0.62v3.22H116.12L116.12,120.61z M114.75,124.44l0.31-0.77v-6.13 l-0.31-0.76h1.37c0.15,0,0.31,0.15,0.46,0.15c0.14,0.16,0.29,0.31,0.45,0.46c0.14,0.15,0.3,0.45,0.3,0.62 c0.14,0.31,0.14,0.61,0.14,1.06c0,0.31,0,0.62-0.14,0.92c0,0.16-0.16,0.47-0.3,0.62c-0.16,0.15-0.31,0.3-0.45,0.46 c-0.15,0-0.31,0.14-0.46,0.14h-0.62v2.45l0.3,0.77H114.75L114.75,124.44z M119.15,118.61l-0.46,3.06h1.07L119.15,118.61 L119.15,118.61z M118.4,123.66l0.3,0.77h-1.07l0.31-0.77l1.22-6.88h0.3l1.21,6.88l0.32,0.77h-1.21l0.29-0.77l-0.29-1.38h-1.22 L118.4,123.66L118.4,123.66z M123.7,124.44h-2.27l0.31-0.77v-6.13l-0.31-0.76h2.27v1.53l-0.45-0.93h-0.91v2.6h0.62l0.29-0.6v1.83 l-0.29-0.6h-0.62v3.2h0.91l0.45-0.92V124.44L123.7,124.44z M72.68,128.1l-0.29,0.76l0.77,4.91l0.75-4.91l-0.31-0.76h0.91 l-0.29,0.76l-1.05,6.88h-0.32l-1.06-6.88l-0.29-0.76H72.68L72.68,128.1z M74.98,128.1h1.22l-0.33,0.76V135l0.33,0.75h-1.22 l0.28-0.75v-6.13L74.98,128.1L74.98,128.1z M77.71,128.72v2.9h0.45c0,0,0.16,0,0.16-0.15c0.15,0,0.15-0.15,0.3-0.3 c0-0.16,0-0.16,0-0.47c0.16-0.15,0.16-0.31,0.16-0.45c0-0.16,0-0.31-0.16-0.62c0-0.14,0-0.3,0-0.46 c-0.15-0.15-0.15-0.15-0.3-0.31l-0.16-0.14H77.71L77.71,128.72z M79.53,135l0.29,0.75h-0.76l-0.9-3.51h-0.45V135l0.3,0.75H76.8 l0.29-0.75v-6.13l-0.29-0.76H78c0.31,0,0.46,0.17,0.61,0.17c0.16,0.13,0.16,0.28,0.31,0.45c0.14,0.14,0.29,0.45,0.29,0.6 c0.17,0.3,0.17,0.61,0.17,0.93c0,0.45,0,0.76-0.17,1.07c-0.15,0.3-0.29,0.61-0.6,0.77L79.53,135L79.53,135z M81.8,135l0.31,0.75 H80.9l0.29-0.75v-6.27h-0.61l-0.44,0.91v-1.53h2.72v1.53l-0.44-0.91H81.8V135L81.8,135z M84.21,135.74 c-0.14-0.14-0.28-0.3-0.43-0.44c-0.16-0.3-0.16-0.47-0.3-0.77c0-0.29,0-0.45,0-0.91v-4.75l-0.31-0.76h1.04l-0.28,0.76v4.75 c0,0.3,0.15,0.46,0.15,0.62c0,0.29,0,0.44,0.14,0.44c0,0.16,0.17,0.32,0.32,0.47c0,0,0.15,0,0.31,0h0.14 c0.15-0.14,0.3-0.31,0.3-0.47c0.16,0,0.16-0.14,0.16-0.44c0-0.16,0.14-0.32,0.14-0.62v-4.75l-0.45-0.76h1.07l-0.32,0.76v4.75 c0,0.46,0,0.62-0.14,0.91c0,0.3-0.17,0.47-0.31,0.77c0,0.15-0.16,0.3-0.31,0.44c-0.15,0-0.29,0.17-0.45,0.17 C84.54,135.92,84.39,135.74,84.21,135.74L84.21,135.74z M88.17,135l0.3,0.75h-1.21l0.32-0.75v-6.27h-0.61l-0.47,0.91v-1.53h2.74 v1.53l-0.45-0.91h-0.61V135L88.17,135z M89.84,128.1h1.22l-0.29,0.76V135l0.29,0.75h-1.22l0.32-0.75v-6.13L89.84,128.1 L89.84,128.1z M93.04,135.14c0.29,0,0.45-0.14,0.59-0.47c0-0.14,0.16-0.44,0.16-0.9c0-0.16,0-0.47,0-0.62 c-0.16-0.15-0.16-0.31-0.16-0.46c-0.14-0.17-0.14-0.3-0.3-0.3c0-0.17-0.14-0.17-0.29-0.17h-0.46v2.91H93.04L93.04,135.14z M92.58,128.72v2.9h0.46c0.15,0,0.29-0.15,0.29-0.45c0.16-0.16,0.3-0.62,0.3-0.92c0-0.16,0-0.46-0.14-0.62c0-0.14,0-0.3,0-0.46 c-0.16-0.15-0.16-0.15-0.3-0.31l-0.15-0.14H92.58L92.58,128.72z M91.66,135.74l0.32-0.75v-6.13l-0.32-0.76h1.38 c0.15,0,0.15,0.17,0.29,0.17c0.16,0.13,0.3,0.13,0.46,0.28c0.15,0.17,0.32,0.46,0.32,0.77c0,0.17,0.13,0.46,0.13,0.93 c0,0.15,0,0.31-0.13,0.45c0,0.17,0,0.31-0.17,0.47c0,0.15,0,0.3-0.15,0.3c0,0.15-0.16,0.3-0.3,0.3c0.14,0,0.3,0.16,0.45,0.32 c0,0.14,0.17,0.3,0.17,0.43c0.13,0.17,0.13,0.32,0.13,0.63c0.16,0.15,0.16,0.3,0.16,0.62c0,0.3,0,0.6-0.16,0.9 c0,0.32-0.13,0.47-0.3,0.63c-0.15,0.15-0.31,0.3-0.45,0.3c-0.16,0-0.3,0.14-0.45,0.14H91.66L91.66,135.74z M96.08,135.74 c-0.15-0.14-0.3-0.3-0.46-0.44c0-0.3-0.16-0.47-0.16-0.77c-0.15-0.29-0.15-0.45-0.15-0.91v-4.75l-0.29-0.76h1.22l-0.31,0.76v4.75 c0,0.3,0,0.46,0,0.62c0,0.29,0.15,0.44,0.15,0.44c0.16,0.16,0.16,0.32,0.29,0.47c0,0,0.16,0,0.31,0c0,0,0.13,0,0.31,0 c0-0.14,0.14-0.31,0.14-0.47c0.14,0,0.14-0.14,0.14-0.44c0.17-0.16,0.17-0.32,0.17-0.62v-4.75l-0.31-0.76h0.92l-0.3,0.76v4.75 c0,0.46,0,0.62,0,0.91c-0.16,0.3-0.31,0.47-0.31,0.77c-0.17,0.15-0.31,0.3-0.45,0.44c-0.17,0-0.31,0.17-0.45,0.17 C96.37,135.92,96.23,135.74,96.08,135.74L96.08,135.74z M100.61,132.23c0,0,0,0.17,0.16,0.17c0,0.13,0,0.3,0,0.45 c0.15,0.16,0.15,0.31,0.15,0.61c0,0.32-0.15,0.62-0.15,0.92c0,0.15-0.16,0.46-0.16,0.62c-0.14,0.3-0.28,0.45-0.45,0.6 c-0.15,0.14-0.3,0.14-0.46,0.14c-0.15,0-0.3,0-0.3,0l-0.76-0.3l0.3-1.37l0.46,1.07c0.15,0.16,0.15,0.16,0.3,0.16 c0.16,0,0.16,0,0.31-0.16c0.15-0.14,0.15-0.14,0.15-0.31c0.16-0.16,0.16-0.3,0.16-0.46c0-0.14,0-0.3,0-0.46c0-0.14,0-0.3,0-0.46 c-0.16-0.3-0.16-0.45-0.31-0.61l-0.77-1.07c-0.13-0.15-0.3-0.3-0.45-0.6c0-0.3-0.15-0.62-0.15-1.08c0-0.31,0.15-0.6,0.15-0.92 c0-0.15,0.15-0.45,0.32-0.62c0-0.15,0.13-0.28,0.29-0.28c0.15-0.17,0.15-0.17,0.3-0.17c0.16,0,0.16,0,0.16,0 c0.15,0,0.15,0,0.15,0.17l0.76,0.13l-0.3,1.38l-0.46-1.07c0,0,0,0-0.15,0l0,0c-0.16,0-0.31,0-0.31,0 c-0.15,0.14-0.15,0.14-0.15,0.3c-0.16,0.15-0.16,0.15-0.16,0.31c0,0.17,0,0.3,0,0.46c0,0.15,0,0.31,0,0.46 c0.16,0.31,0.16,0.45,0.31,0.76l0.92,1.08C100.48,132.09,100.61,132.09,100.61,132.23L100.61,132.23z M105.64,132.23 c0,0,0,0.17,0.14,0.17c0,0.13,0,0.3,0,0.45c0.16,0.16,0.16,0.31,0.16,0.61c0,0.32-0.16,0.62-0.16,0.92 c0,0.15-0.14,0.46-0.14,0.62c-0.15,0.3-0.32,0.45-0.45,0.6c-0.15,0.14-0.31,0.14-0.47,0.14c-0.14,0-0.29,0-0.29,0l-0.75-0.3 l0.3-1.37l0.46,1.07c0.15,0.16,0.15,0.16,0.29,0.16c0.17,0,0.17,0,0.32-0.16c0.15-0.14,0.15-0.14,0.15-0.31 c0.13-0.16,0.13-0.3,0.13-0.46c0-0.14,0-0.3,0-0.46c0-0.14,0-0.3,0-0.46c0-0.3-0.13-0.45-0.28-0.61l-0.77-1.07 c-0.14-0.15-0.3-0.3-0.46-0.6c0-0.3-0.14-0.62-0.14-1.08c0-0.31,0.14-0.6,0.14-0.92c0-0.15,0.15-0.45,0.32-0.62 c0-0.15,0.14-0.28,0.3-0.28c0.15-0.17,0.29-0.17,0.29-0.17c0.17,0,0.17,0,0.17,0c0.15,0,0.15,0,0.15,0.17l0.75,0.13l-0.29,1.38 l-0.46-1.07c0,0,0,0-0.15,0l0,0c-0.17,0-0.31,0-0.31,0c-0.15,0.14-0.15,0.14-0.15,0.3c-0.16,0.15-0.16,0.15-0.16,0.31 c0,0.17,0,0.3,0,0.46c0,0.15,0,0.31,0,0.46c0.16,0.31,0.16,0.45,0.31,0.76l0.92,1.08C105.5,132.09,105.64,132.09,105.64,132.23 L105.64,132.23z M107.92,131.93c0,0,0.14-0.16,0.3-0.16c0-0.15,0.15-0.15,0.15-0.3c0.16-0.15,0.16-0.3,0.16-0.46 c0.15-0.31,0.15-0.46,0.15-0.61c0-0.31,0-0.46-0.15-0.61c0-0.29,0-0.46-0.16-0.61c0-0.15-0.15-0.15-0.15-0.31 c-0.16,0-0.3-0.14-0.3-0.14h-0.61v3.21H107.92L107.92,131.93z M106.39,135.74l0.46-0.75v-6.13l-0.46-0.76h1.53 c0.14,0,0.3,0.17,0.45,0.17c0.16,0.13,0.31,0.28,0.45,0.45c0.15,0.14,0.31,0.45,0.31,0.77c0.16,0.14,0.16,0.45,0.16,0.91 c0,0.31,0,0.61-0.16,0.92c0,0.15-0.16,0.45-0.31,0.61c-0.14,0.16-0.29,0.3-0.45,0.46c-0.15,0-0.31,0.13-0.45,0.13h-0.61V135 l0.29,0.75H106.39L106.39,135.74z M111.87,134.23v1.51h-2.28l0.31-0.75v-6.13l-0.31-0.76h1.22l-0.31,0.76v6.28h0.9L111.87,134.23 L111.87,134.23z M114.75,135.74h-2.43l0.31-0.75v-6.13l-0.31-0.76h2.43v1.53l-0.46-0.91h-1.06v2.6H114l0.29-0.62v1.99l-0.29-0.77 h-0.77v3.21h1.06l0.46-0.91V135.74L114.75,135.74z M115.96,135l0.31,0.75h-0.91l0.29-0.75v-6.13l-0.29-0.76h0.91l1.52,5.05v-4.29 l-0.32-0.76h0.93l-0.31,0.76v7.5l-2.13-6.74V135L115.96,135z M119.92,135.14h0.6c0.14,0,0.31-0.14,0.46-0.31 c0.15-0.3,0.15-0.46,0.29-0.76c0-0.3,0.16-0.62,0.16-1.07c0-0.3,0.14-0.77,0.14-1.07c0-0.31-0.14-0.76-0.14-1.06 c0-0.47-0.16-0.78-0.16-1.09c-0.14-0.29-0.14-0.46-0.29-0.77c-0.15-0.15-0.32-0.3-0.46-0.3h-0.6V135.14L119.92,135.14z M119,135.74l0.45-0.75v-6.13L119,128.1h1.65c0.17,0,0.46,0.17,0.61,0.45c0.16,0.17,0.3,0.46,0.47,0.77 c0.15,0.3,0.3,0.77,0.3,1.23c0.16,0.46,0.16,0.92,0.16,1.37c0,0.46,0,0.91-0.16,1.38c0,0.47-0.15,0.93-0.3,1.22 c-0.17,0.3-0.31,0.61-0.47,0.92c-0.14,0.15-0.44,0.3-0.61,0.3H119L119,135.74z M125.22,135.74h-2.44l0.32-0.75v-6.13l-0.32-0.76 h2.44v1.53l-0.46-0.91h-1.06v2.6h0.76l0.3-0.62v1.99l-0.3-0.77h-0.76v3.21h1.06l0.46-0.91V135.74L125.22,135.74z M127.35,135 l0.3,0.75h-1.21l0.29-0.75v-6.27h-0.6l-0.46,0.91v-1.53h2.74v1.53l-0.46-0.91h-0.61V135z" style="clip-rule: evenodd; fill: rgb(0, 78, 132); fill-rule: evenodd;"/>
        <g>
          <path class="st1" d="M85.76,208.05l-0.52-0.13l0.27-2.59l1.3,0.31L85.76,208.05z" style="fill: rgb(0, 78, 132);"/>
        </g>
      </g>
      <g>
        <g>
          <g/>
        </g>
      </g>
    </g>
  </g>
</svg>